# MagicaVoxel @ Ephtracy

# group
o 

# material
mtllib keycard.mtl
usemtl palette

# normals
vn -1 0 0
vn 1 0 0
vn 0 0 1
vn 0 0 -1
vn 0 -1 0
vn 0 1 0

# texcoords
vt 0.982422 0.5
vt 0.986328 0.5
vt 0.990234 0.5
vt 0.994141 0.5

# verts
v -0.7 0 0.2
v -0.7 0 0.1
v -0.7 1.5 0.2
v -0.7 1.5 0.1
v -0.4 1.4 0.2
v -0.4 1.4 0.1
v -0.4 1.5 0.2
v -0.4 1.5 0.1
v -0.3 1.3 0.2
v -0.3 1.3 0.1
v -0.3 1.4 0.2
v -0.3 1.4 0.1
v -0.2 1.2 0.2
v -0.2 1.2 0.1
v -0.2 1.3 0.2
v -0.2 1.3 0.1
v -0.1 1.1 0.2
v -0.1 1.1 0.1
v -0.1 1.2 0.2
v -0.1 1.2 0.1
v 0 1 0.2
v 0 1 0.1
v 0 1.1 0.2
v 0 1.1 0.1
v 0.1 0.9 0.2
v 0.1 0.9 0.1
v 0.1 1 0.2
v 0.1 1 0.1
v 0.2 0 0.2
v 0.2 0 0.1
v 0.2 0.9 0.2
v 0.2 0.9 0.1
v -0.7 0 0.2
v -0.7 1.5 0.2
v -0.6 0.1 0.2
v -0.6 1.4 0.2
v -0.5 0 0.2
v -0.5 0.1 0.2
v -0.5 0.4 0.2
v -0.4 0 0.2
v -0.4 0.1 0.2
v -0.4 0.4 0.2
v -0.4 1.3 0.2
v -0.4 1.4 0.2
v -0.4 1.5 0.2
v -0.3 0 0.2
v -0.3 0.1 0.2
v -0.3 0.4 0.2
v -0.3 1.2 0.2
v -0.3 1.3 0.2
v -0.3 1.4 0.2
v -0.2 0 0.2
v -0.2 0.1 0.2
v -0.2 0.4 0.2
v -0.2 1.1 0.2
v -0.2 1.2 0.2
v -0.2 1.3 0.2
v -0.1 0 0.2
v -0.1 0.1 0.2
v -0.1 0.4 0.2
v -0.1 1 0.2
v -0.1 1.1 0.2
v -0.1 1.2 0.2
v 0 0 0.2
v 0 0.1 0.2
v 0 0.4 0.2
v 0 0.9 0.2
v 0 1 0.2
v 0 1.1 0.2
v 0.1 0.1 0.2
v 0.1 0.9 0.2
v 0.1 1 0.2
v 0.2 0 0.2
v 0.2 0.9 0.2
v -0.7 0 0.1
v -0.7 1.5 0.1
v -0.6 0.1 0.1
v -0.6 1.4 0.1
v -0.5 0 0.1
v -0.5 0.1 0.1
v -0.5 0.4 0.1
v -0.4 0 0.1
v -0.4 0.1 0.1
v -0.4 0.4 0.1
v -0.4 1.3 0.1
v -0.4 1.4 0.1
v -0.4 1.5 0.1
v -0.3 0 0.1
v -0.3 0.1 0.1
v -0.3 0.4 0.1
v -0.3 1.2 0.1
v -0.3 1.3 0.1
v -0.3 1.4 0.1
v -0.2 0 0.1
v -0.2 0.1 0.1
v -0.2 0.4 0.1
v -0.2 1.1 0.1
v -0.2 1.2 0.1
v -0.2 1.3 0.1
v -0.1 0 0.1
v -0.1 0.1 0.1
v -0.1 0.4 0.1
v -0.1 1 0.1
v -0.1 1.1 0.1
v -0.1 1.2 0.1
v 0 0 0.1
v 0 0.1 0.1
v 0 0.4 0.1
v 0 0.9 0.1
v 0 1 0.1
v 0 1.1 0.1
v 0.1 0.1 0.1
v 0.1 0.9 0.1
v 0.1 1 0.1
v 0.2 0 0.1
v 0.2 0.9 0.1
v -0.7 0 0.2
v -0.5 0 0.2
v -0.4 0 0.2
v -0.3 0 0.2
v -0.2 0 0.2
v -0.1 0 0.2
v 0 0 0.2
v 0.2 0 0.2
v -0.7 0 0.1
v -0.5 0 0.1
v -0.4 0 0.1
v -0.3 0 0.1
v -0.2 0 0.1
v -0.1 0 0.1
v 0 0 0.1
v 0.2 0 0.1
v 0.1 0.9 0.2
v 0.2 0.9 0.2
v 0.1 0.9 0.1
v 0.2 0.9 0.1
v 0 1 0.2
v 0.1 1 0.2
v 0 1 0.1
v 0.1 1 0.1
v -0.1 1.1 0.2
v 0 1.1 0.2
v -0.1 1.1 0.1
v 0 1.1 0.1
v -0.2 1.2 0.2
v -0.1 1.2 0.2
v -0.2 1.2 0.1
v -0.1 1.2 0.1
v -0.3 1.3 0.2
v -0.2 1.3 0.2
v -0.3 1.3 0.1
v -0.2 1.3 0.1
v -0.4 1.4 0.2
v -0.3 1.4 0.2
v -0.4 1.4 0.1
v -0.3 1.4 0.1
v -0.7 1.5 0.2
v -0.4 1.5 0.2
v -0.7 1.5 0.1
v -0.4 1.5 0.1

# faces
f 3/1/1 2/1/1 1/1/1
f 4/1/1 2/1/1 3/1/1
f 5/1/2 6/1/2 7/1/2
f 7/1/2 6/1/2 8/1/2
f 9/1/2 10/1/2 11/1/2
f 11/1/2 10/1/2 12/1/2
f 13/1/2 14/1/2 15/1/2
f 15/1/2 14/1/2 16/1/2
f 17/1/2 18/1/2 19/1/2
f 19/1/2 18/1/2 20/1/2
f 21/1/2 22/1/2 23/1/2
f 23/1/2 22/1/2 24/1/2
f 25/1/2 26/1/2 27/1/2
f 27/1/2 26/1/2 28/1/2
f 29/1/2 30/1/2 31/1/2
f 31/1/2 30/1/2 32/1/2
f 35/1/3 34/1/3 33/1/3
f 36/1/3 34/1/3 35/1/3
f 37/1/3 35/1/3 33/1/3
f 38/4/3 36/4/3 35/4/3
f 38/1/3 35/1/3 37/1/3
f 39/4/3 36/4/3 38/4/3
f 40/3/3 38/3/3 37/3/3
f 41/2/3 39/2/3 38/2/3
f 41/3/3 38/3/3 40/3/3
f 42/4/3 36/4/3 39/4/3
f 42/2/3 39/2/3 41/2/3
f 43/4/3 36/4/3 42/4/3
f 44/1/3 34/1/3 36/1/3
f 44/4/3 36/4/3 43/4/3
f 45/1/3 34/1/3 44/1/3
f 46/1/3 41/1/3 40/1/3
f 47/4/3 43/4/3 42/4/3
f 47/1/3 41/1/3 46/1/3
f 47/4/3 42/4/3 41/4/3
f 48/4/3 43/4/3 47/4/3
f 49/4/3 43/4/3 48/4/3
f 50/1/3 44/1/3 43/1/3
f 50/4/3 43/4/3 49/4/3
f 51/1/3 44/1/3 50/1/3
f 52/3/3 47/3/3 46/3/3
f 53/2/3 48/2/3 47/2/3
f 53/3/3 47/3/3 52/3/3
f 54/4/3 49/4/3 48/4/3
f 54/2/3 48/2/3 53/2/3
f 55/4/3 49/4/3 54/4/3
f 56/1/3 50/1/3 49/1/3
f 56/4/3 49/4/3 55/4/3
f 57/1/3 50/1/3 56/1/3
f 58/1/3 53/1/3 52/1/3
f 59/4/3 55/4/3 54/4/3
f 59/1/3 53/1/3 58/1/3
f 59/4/3 54/4/3 53/4/3
f 60/4/3 55/4/3 59/4/3
f 61/4/3 55/4/3 60/4/3
f 62/1/3 56/1/3 55/1/3
f 62/4/3 55/4/3 61/4/3
f 63/1/3 56/1/3 62/1/3
f 64/3/3 59/3/3 58/3/3
f 65/2/3 60/2/3 59/2/3
f 65/3/3 59/3/3 64/3/3
f 66/4/3 61/4/3 60/4/3
f 66/2/3 60/2/3 65/2/3
f 67/4/3 61/4/3 66/4/3
f 68/1/3 62/1/3 61/1/3
f 68/4/3 61/4/3 67/4/3
f 69/1/3 62/1/3 68/1/3
f 70/1/3 65/1/3 64/1/3
f 70/4/3 67/4/3 66/4/3
f 70/4/3 66/4/3 65/4/3
f 71/1/3 68/1/3 67/1/3
f 71/4/3 67/4/3 70/4/3
f 72/1/3 68/1/3 71/1/3
f 73/1/3 70/1/3 64/1/3
f 73/1/3 71/1/3 70/1/3
f 74/1/3 71/1/3 73/1/3
f 75/1/4 76/1/4 77/1/4
f 77/1/4 76/1/4 78/1/4
f 75/1/4 77/1/4 79/1/4
f 77/4/4 78/4/4 80/4/4
f 79/1/4 77/1/4 80/1/4
f 80/4/4 78/4/4 81/4/4
f 79/3/4 80/3/4 82/3/4
f 80/2/4 81/2/4 83/2/4
f 82/3/4 80/3/4 83/3/4
f 81/4/4 78/4/4 84/4/4
f 83/2/4 81/2/4 84/2/4
f 84/4/4 78/4/4 85/4/4
f 78/1/4 76/1/4 86/1/4
f 85/4/4 78/4/4 86/4/4
f 86/1/4 76/1/4 87/1/4
f 82/1/4 83/1/4 88/1/4
f 84/4/4 85/4/4 89/4/4
f 88/1/4 83/1/4 89/1/4
f 83/4/4 84/4/4 89/4/4
f 89/4/4 85/4/4 90/4/4
f 90/4/4 85/4/4 91/4/4
f 85/1/4 86/1/4 92/1/4
f 91/4/4 85/4/4 92/4/4
f 92/1/4 86/1/4 93/1/4
f 88/3/4 89/3/4 94/3/4
f 89/2/4 90/2/4 95/2/4
f 94/3/4 89/3/4 95/3/4
f 90/4/4 91/4/4 96/4/4
f 95/2/4 90/2/4 96/2/4
f 96/4/4 91/4/4 97/4/4
f 91/1/4 92/1/4 98/1/4
f 97/4/4 91/4/4 98/4/4
f 98/1/4 92/1/4 99/1/4
f 94/1/4 95/1/4 100/1/4
f 96/4/4 97/4/4 101/4/4
f 100/1/4 95/1/4 101/1/4
f 95/4/4 96/4/4 101/4/4
f 101/4/4 97/4/4 102/4/4
f 102/4/4 97/4/4 103/4/4
f 97/1/4 98/1/4 104/1/4
f 103/4/4 97/4/4 104/4/4
f 104/1/4 98/1/4 105/1/4
f 100/3/4 101/3/4 106/3/4
f 101/2/4 102/2/4 107/2/4
f 106/3/4 101/3/4 107/3/4
f 102/4/4 103/4/4 108/4/4
f 107/2/4 102/2/4 108/2/4
f 108/4/4 103/4/4 109/4/4
f 103/1/4 104/1/4 110/1/4
f 109/4/4 103/4/4 110/4/4
f 110/1/4 104/1/4 111/1/4
f 106/1/4 107/1/4 112/1/4
f 108/4/4 109/4/4 112/4/4
f 107/4/4 108/4/4 112/4/4
f 109/1/4 110/1/4 113/1/4
f 112/4/4 109/4/4 113/4/4
f 113/1/4 110/1/4 114/1/4
f 106/1/4 112/1/4 115/1/4
f 112/1/4 113/1/4 115/1/4
f 115/1/4 113/1/4 116/1/4
f 125/1/5 118/1/5 117/1/5
f 126/3/5 119/3/5 118/3/5
f 126/1/5 118/1/5 125/1/5
f 127/1/5 120/1/5 119/1/5
f 127/3/5 119/3/5 126/3/5
f 128/3/5 121/3/5 120/3/5
f 128/1/5 120/1/5 127/1/5
f 129/1/5 122/1/5 121/1/5
f 129/3/5 121/3/5 128/3/5
f 130/3/5 123/3/5 122/3/5
f 130/1/5 122/1/5 129/1/5
f 131/1/5 124/1/5 123/1/5
f 131/3/5 123/3/5 130/3/5
f 132/1/5 124/1/5 131/1/5
f 133/1/6 134/1/6 135/1/6
f 135/1/6 134/1/6 136/1/6
f 137/1/6 138/1/6 139/1/6
f 139/1/6 138/1/6 140/1/6
f 141/1/6 142/1/6 143/1/6
f 143/1/6 142/1/6 144/1/6
f 145/1/6 146/1/6 147/1/6
f 147/1/6 146/1/6 148/1/6
f 149/1/6 150/1/6 151/1/6
f 151/1/6 150/1/6 152/1/6
f 153/1/6 154/1/6 155/1/6
f 155/1/6 154/1/6 156/1/6
f 157/1/6 158/1/6 159/1/6
f 159/1/6 158/1/6 160/1/6
