# 3ds Max Wavefront OBJ Exporter v0.99 - (c)2007 guruware
# File Created: 03.02.2022 23:22:04

#
# object Box001
#

v  -96.1226 70.0269 -6.1162
v  -81.6550 69.7355 -8.2454
v  -87.2630 63.5394 -6.1347
v  -85.9547 64.9618 1.5168
v  -80.3467 71.1579 -0.5940
v  -49.7299 82.4737 -8.2515
v  -48.1990 74.2740 -6.1568
v  -50.0751 84.3602 -0.6144
v  -48.5442 76.1605 1.4803
v  3.2052 87.6197 -8.2720
v  3.0695 79.3355 -6.1896
v  3.2459 89.5258 -0.6863
v  3.1103 81.2416 1.3961
v  56.9996 74.9086 -8.2997
v  53.3556 67.5728 -6.2353
v  57.8529 76.5951 -0.8004
v  54.2088 69.2593 1.2640
v  94.8776 40.7119 -8.3211
v  87.7655 36.9224 -6.2800
v  96.5339 41.5773 -0.9429
v  89.4219 37.7878 1.0982
v  103.4295 6.2164 -8.2873
v  95.5398 6.1964 -6.2817
v  105.2658 6.2089 -1.0638
v  97.3760 6.1890 0.9418
v  87.6533 -30.8525 -8.2078
v  81.9865 -25.6629 -6.2483
v  88.9745 -32.0663 -1.1726
v  83.3077 -26.8766 0.7869
v  53.5320 -55.9474 -8.0667
v  50.3589 -49.2149 -6.1687
v  54.2753 -57.5181 -1.2524
v  51.1022 -50.7856 0.6456
v  7.2507 -72.3521 -7.8762
v  6.1355 -65.2747 -6.0505
v  7.5170 -74.0022 -1.3165
v  6.4019 -66.9249 0.5092
v  -44.0438 -75.6900 -7.6378
v  -42.6449 -68.9845 -5.8955
v  -44.3602 -77.2536 -1.3663
v  -42.9612 -70.5480 0.3761
v  -79.4343 -55.1218 -7.3586
v  -73.8665 -51.7684 -5.7156
v  -80.7166 -55.9084 -1.4078
v  -75.1487 -52.5550 0.2352
v  -81.2403 -27.0379 -7.0847
v  -76.5367 -30.9414 -5.5507
v  -82.3228 -26.1432 -1.4885
v  -77.6192 -30.0466 0.0455
v  -49.2828 -9.5864 -6.8447
v  -49.0856 -15.2675 -5.4163
v  -49.3221 -8.2792 -1.6401
v  -49.1248 -13.9603 -0.2117
v  -25.0249 -20.7956 -6.6190
v  -29.1524 -23.9883 -5.2992
v  -24.0631 -20.0641 -1.8415
v  -28.1905 -23.2568 -0.5217
v  -26.8536 -40.3063 -6.3545
v  -30.9526 -37.9770 -5.1529
v  -25.8989 -40.8530 -2.0381
v  -29.9979 -38.5237 -0.8365
v  -47.9306 -44.9521 -3.1997
v  48.5591 13.7567 -2.1386
v  42.0847 20.0131 -2.1386
v  48.8600 27.0243 -2.1386
v  55.3344 20.7679 -2.1386
v  48.5591 13.7567 4.6553
v  55.3344 20.7679 4.6553
v  48.8600 27.0243 4.6553
v  42.0847 20.0131 4.6553
v  9.6688 42.5247 -2.1386
v  14.9766 50.7033 -2.1386
v  9.6688 42.5247 4.6553
v  14.9766 50.7033 4.6553
v  -18.7218 45.3235 -2.1386
v  -18.5520 55.0720 -2.1386
v  -18.7218 45.3235 4.6553
v  -18.5520 55.0720 4.6553
v  -36.1166 36.3939 -2.1386
v  -44.7595 40.9063 -2.1386
v  -36.1166 36.3939 4.6553
v  -44.7595 40.9064 4.6553
v  -32.1828 12.6037 -2.1386
v  -40.1321 6.9583 -2.1386
v  -32.1828 12.6037 4.6553
v  -40.1321 6.9583 4.6553
v  -12.3873 3.3729 -2.1386
v  -13.5380 -6.3089 -2.1386
v  -12.3873 3.3729 4.6553
v  -13.5379 -6.3089 4.6553
v  13.2586 -7.0266 0.1237
v  9.5930 53.7763 -2.1386
v  9.5930 53.7763 4.6553
v  1.2765 53.9325 -2.1386
v  1.2765 53.9325 4.6553
v  -15.5940 71.4873 1.7895
v  -23.9106 71.3416 1.7895
v  -82.0810 39.6287 -2.9220
v  -93.7684 43.8848 -2.9220
v  -91.5549 52.9584 -0.2400
v  -93.7684 43.8848 3.1665
v  -82.0810 39.6287 3.1665
v  -91.5319 31.0583 -2.9220
v  -100.5204 39.6556 -2.9220
v  -91.5318 31.0583 3.1665
v  -100.5204 39.6556 3.1665
v  -95.0142 25.4730 -2.9220
v  -107.3876 26.7411 -2.9220
v  -95.0142 25.4730 3.1665
v  -107.3876 26.7411 3.1665
v  -91.9304 18.2386 -2.9220
v  -102.3851 11.5000 -2.9220
v  -91.9304 18.2386 3.1665
v  -102.3851 11.5000 3.1665
v  -80.3352 5.9882 -0.2123
# 115 vertices

vn -0.9042 0.3044 -0.2998
vn 0.0991 0.5313 -0.8413
vn -0.1040 -0.7735 -0.6252
vn -0.3663 -0.6146 0.6986
vn -0.3553 0.7038 0.6152
vn -0.0120 0.6796 -0.7335
vn 0.2634 -0.7209 -0.6410
vn -0.3029 0.7468 0.5921
vn -0.0541 -0.6213 0.7817
vn 0.1632 0.7025 -0.6927
vn 0.0512 -0.7204 -0.6917
vn -0.0401 0.7708 0.6358
vn -0.1631 -0.6076 0.7773
vn 0.3923 0.6548 -0.6460
vn -0.2668 -0.6107 -0.7456
vn 0.3117 0.6800 0.6637
vn -0.3294 -0.5316 0.7803
vn 0.6297 0.4448 -0.6369
vn -0.5806 -0.3072 -0.7540
vn 0.6675 0.3533 0.6555
vn -0.4838 -0.3668 0.7946
vn 0.7249 0.0860 -0.6834
vn -0.7008 0.1811 -0.6899
vn 0.8006 -0.1582 0.5779
vn -0.5333 -0.1445 0.8335
vn 0.5973 -0.2155 -0.7725
vn -0.5573 0.6041 -0.5697
vn 0.6165 -0.6354 0.4650
vn -0.4733 0.0895 0.8763
vn 0.4026 -0.3358 -0.8516
vn -0.3220 0.8284 -0.4582
vn 0.3380 -0.8536 0.3965
vn -0.3699 0.2379 0.8981
vn 0.2560 -0.3840 -0.8871
vn -0.1058 0.9085 -0.4043
vn 0.1087 -0.9325 0.3444
vn -0.2519 0.2849 0.9249
vn 0.0030 -0.4230 -0.9061
vn 0.2495 0.8880 -0.3863
vn -0.2587 -0.9313 0.2565
vn -0.0788 0.2205 0.9722
vn -0.4085 -0.1811 -0.8946
vn 0.7276 0.5424 -0.4200
vn -0.8192 -0.5337 0.2099
vn 0.1031 0.0070 0.9946
vn -0.4575 0.4431 -0.7709
vn 0.8011 -0.1771 -0.5717
vn -0.8500 0.3758 0.3692
vn 0.0706 -0.3163 0.9460
vn 0.0976 0.7660 -0.6354
vn 0.1654 -0.6510 -0.7408
vn -0.1164 0.8026 0.5850
vn -0.1220 -0.4924 0.8618
vn 0.6921 0.4407 -0.5717
vn -0.5140 -0.2112 -0.8314
vn 0.6894 0.3668 0.6247
vn -0.3339 -0.3321 0.8822
vn 0.5800 -0.3375 -0.7414
vn -0.5099 0.5375 -0.6717
vn 0.6120 -0.6729 0.4156
vn -0.4331 -0.0967 0.8961
vn -0.9431 -0.2717 -0.1915
vn 0.1259 -0.6984 -0.7046
vn -0.3000 -0.3872 -0.8718
vn 0.5560 0.6701 -0.4917
vn 0.8999 0.1106 -0.4219
vn -0.0644 -0.9076 0.4149
vn 0.7096 -0.0986 0.6976
vn 0.3288 0.4202 0.8458
vn -0.5391 -0.6502 0.5354
vn -0.0789 -0.4493 -0.8899
vn 0.4804 0.7185 -0.5030
vn -0.3321 -0.7278 0.6001
vn 0.2508 0.4659 0.8485
vn 0.2569 -0.4691 -0.8449
vn -0.0710 0.8485 -0.5245
vn 0.0011 -0.7505 0.6608
vn -0.2853 0.6127 0.7370
vn 0.5874 -0.0682 -0.8064
vn -0.6132 0.4719 -0.6335
vn 0.3019 -0.3821 0.8734
vn -0.8104 0.2550 0.5274
vn 0.5693 0.4787 -0.6684
vn -0.5208 -0.3338 -0.7857
vn 0.2963 0.1785 0.9383
vn -0.7236 -0.5569 0.4078
vn 0.4011 0.7450 -0.5330
vn -0.0257 -0.5885 -0.8081
vn 0.1842 0.4698 0.8633
vn -0.2208 -0.8310 0.5107
vn 0.9757 -0.2019 0.0853
vn 0.4592 0.7129 -0.5300
vn 0.2266 0.4501 0.8637
vn 0.0350 0.3410 -0.9394
vn -0.2912 -0.0462 0.9556
vn 0.0735 0.9723 0.2218
vn -0.9200 0.3850 -0.0727
vn 0.8888 0.0358 -0.4568
vn -0.2748 0.5770 -0.7691
vn -0.1677 0.9782 0.1226
vn -0.5209 0.3069 0.7966
vn 0.6904 -0.1747 0.7020
vn 0.6403 -0.2953 -0.7091
vn -0.4494 0.6311 -0.6323
vn 0.3966 -0.5633 0.7249
vn -0.6646 0.3944 0.6346
vn 0.6896 0.1019 -0.7170
vn -0.6620 0.1868 -0.7259
vn 0.4170 -0.1979 0.8871
vn -0.8691 -0.0410 0.4930
vn 0.6873 0.4237 -0.5900
vn -0.3960 -0.4600 -0.7947
vn 0.4418 0.1311 0.8875
vn -0.5963 -0.6880 0.4136
vn 0.8581 -0.5124 0.0320
# 115 vertex normals

vt 0.8105 0.8175 0.0000
vt 0.7248 0.9031 0.0000
vt 0.7248 0.8175 0.0000
vt 0.8105 0.9031 0.0000
vt 0.6633 0.8491 0.0000
vt 0.6567 0.8427 0.0000
vt 0.6450 0.8092 0.0000
vt 0.6540 0.8081 0.0000
vt 0.7344 0.9354 0.0000
vt 0.7330 0.9436 0.0000
vt 0.6980 0.9454 0.0000
vt 0.6980 0.9371 0.0000
vt 0.9460 0.9564 0.0000
vt 0.9396 0.9630 0.0000
vt 0.9481 0.9235 0.0000
vt 0.9571 0.9242 0.0000
vt 0.6789 0.8704 0.0000
vt 0.6789 0.8620 0.0000
vt 0.7209 0.8709 0.0000
vt 0.7194 0.8791 0.0000
vt 0.6423 0.7539 0.0000
vt 0.6513 0.7545 0.0000
vt 0.6437 0.9452 0.0000
vt 0.6441 0.9369 0.0000
vt 0.9489 0.8694 0.0000
vt 0.9579 0.8684 0.0000
vt 0.7738 0.8803 0.0000
vt 0.7726 0.8885 0.0000
vt 0.6582 0.6980 0.0000
vt 0.6660 0.7023 0.0000
vt 0.6465 0.8625 0.0000
vt 0.6452 0.8543 0.0000
vt 0.6972 0.8473 0.0000
vt 0.6978 0.8555 0.0000
vt 0.9321 0.8168 0.0000
vt 0.9398 0.8123 0.0000
vt 0.6437 0.9142 0.0000
vt 0.6451 0.9060 0.0000
vt 0.6929 0.9126 0.0000
vt 0.6924 0.9207 0.0000
vt 0.6957 0.6590 0.0000
vt 0.6996 0.6669 0.0000
vt 0.7525 0.8474 0.0000
vt 0.7518 0.8554 0.0000
vt 0.8963 0.7818 0.0000
vt 0.9000 0.7739 0.0000
vt 0.7417 0.9127 0.0000
vt 0.7424 0.9207 0.0000
vt 0.7320 0.6507 0.0000
vt 0.7320 0.6593 0.0000
vt 0.7845 0.8527 0.0000
vt 0.7831 0.8605 0.0000
vt 0.8628 0.7752 0.0000
vt 0.8625 0.7666 0.0000
vt 0.7696 0.9082 0.0000
vt 0.7711 0.9159 0.0000
vt 0.7699 0.6678 0.0000
vt 0.7645 0.6740 0.0000
vt 0.7742 0.8949 0.0000
vt 0.7735 0.9027 0.0000
vt 0.7332 0.8924 0.0000
vt 0.7350 0.8852 0.0000
vt 0.8297 0.7916 0.0000
vt 0.8241 0.7856 0.0000
vt 0.6437 0.9329 0.0000
vt 0.6450 0.9253 0.0000
vt 0.6796 0.9252 0.0000
vt 0.6797 0.9327 0.0000
vt 0.7943 0.7039 0.0000
vt 0.7875 0.7074 0.0000
vt 0.6899 0.8814 0.0000
vt 0.6924 0.8745 0.0000
vt 0.8076 0.8264 0.0000
vt 0.8006 0.8231 0.0000
vt 0.7206 0.9252 0.0000
vt 0.7213 0.9324 0.0000
vt 0.8092 0.7525 0.0000
vt 0.8021 0.7539 0.0000
vt 0.6452 0.8699 0.0000
vt 0.6480 0.8635 0.0000
vt 0.7946 0.8738 0.0000
vt 0.7875 0.8726 0.0000
vt 0.7647 0.9251 0.0000
vt 0.7658 0.9321 0.0000
vt 0.8101 0.8061 0.0000
vt 0.8035 0.8049 0.0000
vt 0.9231 0.8224 0.0000
vt 0.9302 0.8236 0.0000
vt 0.9195 0.8776 0.0000
vt 0.9129 0.8759 0.0000
vt 0.7951 0.9253 0.0000
vt 0.7886 0.9268 0.0000
vt 0.6437 0.9563 0.0000
vt 0.6442 0.9492 0.0000
vt 0.6960 0.9519 0.0000
vt 0.6961 0.9587 0.0000
vt 0.7870 0.8427 0.0000
vt 0.7841 0.8372 0.0000
vt 0.9064 0.9127 0.0000
vt 0.9005 0.9101 0.0000
vt 0.8167 0.9578 0.0000
vt 0.8139 0.9635 0.0000
vt 0.7278 0.9486 0.0000
vt 0.7289 0.9549 0.0000
vt 0.7577 0.8442 0.0000
vt 0.7623 0.8396 0.0000
vt 0.8967 0.8321 0.0000
vt 0.9031 0.8313 0.0000
vt 0.9033 0.8629 0.0000
vt 0.8973 0.8619 0.0000
vt 0.8403 0.9592 0.0000
vt 0.8451 0.9636 0.0000
vt 0.8921 0.8680 0.0000
vt 0.8858 0.8663 0.0000
vt 0.8899 0.8444 0.0000
vt 0.8960 0.8444 0.0000
vt 0.7412 0.8106 0.0000
vt 0.7474 0.8107 0.0000
vt 0.8961 0.8633 0.0000
vt 0.9020 0.8630 0.0000
vt 0.9033 0.9005 0.0000
vt 0.8978 0.8997 0.0000
vt 0.8547 0.9286 0.0000
vt 0.8608 0.9282 0.0000
vt 0.8882 0.9005 0.0000
vt 0.8824 0.8990 0.0000
vt 0.8904 0.8682 0.0000
vt 0.8960 0.8685 0.0000
vt 0.7541 0.7855 0.0000
vt 0.7575 0.7901 0.0000
vt 0.8766 0.8728 0.0000
vt 0.8823 0.8722 0.0000
vt 0.8823 0.9005 0.0000
vt 0.8771 0.8999 0.0000
vt 0.8432 0.9072 0.0000
vt 0.8464 0.9025 0.0000
vt 0.6977 0.7820 0.0000
vt 0.6987 0.7764 0.0000
vt 0.7205 0.7784 0.0000
vt 0.7207 0.7836 0.0000
vt 0.7744 0.7878 0.0000
vt 0.7720 0.7923 0.0000
vt 0.7195 0.7710 0.0000
vt 0.7193 0.7762 0.0000
vt 0.6977 0.7718 0.0000
vt 0.6991 0.7672 0.0000
vt 0.8276 0.9099 0.0000
vt 0.8250 0.9055 0.0000
vt 0.8960 0.8442 0.0000
vt 0.8908 0.8433 0.0000
vt 0.8911 0.8283 0.0000
vt 0.8958 0.8279 0.0000
vt 1.0000 1.0000 1.0000
vt 0.8718 0.8774 0.0000
vt 0.8765 0.8775 0.0000
vt 0.8704 0.9005 0.0000
vt 0.8228 0.9284 0.0000
vt 0.8823 0.8721 0.0000
vt 0.8778 0.8708 0.0000
vt 0.8821 0.8517 0.0000
vt 0.3611 0.5857 0.0000
vt 0.3315 0.5806 0.0000
vt 0.3370 0.5496 0.0000
vt 0.3665 0.5547 0.0000
vt 0.4356 0.6576 0.0000
vt 0.4670 0.6566 0.0000
vt 0.4680 0.6865 0.0000
vt 0.4365 0.6875 0.0000
vt 0.3333 0.8236 0.0000
vt 0.3413 0.7922 0.0000
vt 0.3632 0.7977 0.0000
vt 0.3552 0.8291 0.0000
vt 0.3668 0.8372 0.0000
vt 0.3680 0.8073 0.0000
vt 0.3899 0.8080 0.0000
vt 0.3887 0.8379 0.0000
vt 0.4166 0.7558 0.0000
vt 0.4168 0.7857 0.0000
vt 0.3948 0.7857 0.0000
vt 0.3947 0.7558 0.0000
vt 0.2004 0.5787 0.0000
vt 0.1995 0.5472 0.0000
vt 0.3990 0.6256 0.0000
vt 0.4210 0.6256 0.0000
vt 0.4512 0.8229 0.0000
vt 0.4202 0.8177 0.0000
vt 0.3683 0.6708 0.0000
vt 0.3902 0.6715 0.0000
vt 0.1172 0.6223 0.0000
vt 0.0994 0.5958 0.0000
vt 0.4130 0.5493 0.0000
vt 0.4349 0.5494 0.0000
vt 0.3891 0.9153 0.0000
vt 0.3655 0.8940 0.0000
vt 0.0863 0.6775 0.0000
vt 0.0541 0.6810 0.0000
vt 0.0756 0.6332 0.0000
vt 0.0537 0.6276 0.0000
vt 0.0686 0.5686 0.0000
vt 0.0905 0.5742 0.0000
vt 0.2985 0.9483 0.0000
vt 0.3065 0.9169 0.0000
vt 0.1641 0.6492 0.0000
vt 0.1632 0.6266 0.0000
vt 0.2566 0.6230 0.0000
vt 0.2575 0.6456 0.0000
vt 0.1418 0.7341 0.0000
vt 0.1306 0.7636 0.0000
vt 0.3253 0.5858 0.0000
vt 0.3472 0.5858 0.0000
vt 0.3351 0.6486 0.0000
vt 0.3132 0.6487 0.0000
vt 0.2274 0.8611 0.0000
vt 0.2581 0.8541 0.0000
vt 0.0553 0.7123 0.0000
vt 0.0779 0.7127 0.0000
vt 0.0762 0.8266 0.0000
vt 0.0537 0.8263 0.0000
vt 0.2134 0.7232 0.0000
vt 0.2285 0.7512 0.0000
vt 0.3405 0.7180 0.0000
vt 0.3185 0.7181 0.0000
vt 0.2532 0.7659 0.0000
vt 0.2788 0.7847 0.0000
vt 0.4687 0.9141 0.0000
vt 0.4461 0.9125 0.0000
vt 0.4530 0.8139 0.0000
vt 0.4756 0.8155 0.0000
vt 0.3030 0.7068 0.0000
vt 0.3338 0.8045 0.0000
vt 0.3132 0.6982 0.0000
vt 0.4662 0.7338 0.0000
vt 0.3679 0.6506 0.0000
vt 0.3898 0.6513 0.0000
vt 0.1559 0.5632 0.0000
vt 0.1790 0.5486 0.0000
vt 0.2293 0.6494 0.0000
vt 0.2297 0.6720 0.0000
vt 0.1636 0.6733 0.0000
vt 0.1632 0.6507 0.0000
vt 0.4293 0.8639 0.0000
vt 0.4469 0.8431 0.0000
vt 0.3808 0.5493 0.0000
vt 0.0537 0.5651 0.0000
vt 0.0762 0.5497 0.0000
vt 0.4466 0.6525 0.0000
vt 0.4247 0.6524 0.0000
vt 0.4374 0.5515 0.0000
vt 0.4371 0.9447 0.0000
vt 0.4188 0.9649 0.0000
vt 0.7575 0.4472 0.0000
vt 0.7902 0.3679 0.0000
vt 0.8481 0.3808 0.0000
vt 0.8523 0.1134 0.0000
vt 0.7886 0.1380 0.0000
vt 0.7504 0.0612 0.0000
vt 0.8185 0.2787 0.0000
vt 0.8607 0.2785 0.0000
vt 0.8372 0.3355 0.0000
vt 0.5653 0.2730 0.0000
vt 0.5415 0.3837 0.0000
vt 0.5244 0.2731 0.0000
vt 0.7021 0.3817 0.0000
vt 0.7636 0.3213 0.0000
vt 0.7811 0.3122 0.0000
vt 0.7402 0.3019 0.0000
vt 0.7617 0.2166 0.0000
vt 0.8026 0.2270 0.0000
vt 0.7653 0.1863 0.0000
vt 0.6997 0.1304 0.0000
vt 0.8183 0.2255 0.0000
vt 0.8605 0.2254 0.0000
vt 0.6652 0.3573 0.0000
vt 0.6779 0.2730 0.0000
vt 0.7727 0.1731 0.0000
vt 0.8136 0.1834 0.0000
vt 0.6831 0.2405 0.0000
vt 0.6646 0.1573 0.0000
vt 0.8181 0.1273 0.0000
vt 0.8603 0.1272 0.0000
vt 0.6149 0.3775 0.0000
vt 0.5724 0.3054 0.0000
vt 0.7223 0.4163 0.0000
vt 0.7224 0.4572 0.0000
vt 0.6729 0.4517 0.0000
vt 0.6728 0.4108 0.0000
vt 0.5757 0.2156 0.0000
vt 0.6130 0.1407 0.0000
vt 0.9133 0.2993 0.0000
vt 0.8725 0.2964 0.0000
vt 0.8660 0.1991 0.0000
vt 0.9068 0.2021 0.0000
vt 0.5244 0.4520 0.0000
vt 0.5564 0.4271 0.0000
vt 0.5244 0.0649 0.0000
vt 0.9123 0.0632 0.0000
# 296 texture coords

o Box001
g Box001
s 1
f 1/1/1 2/2/2 3/3/3 
f 1/3/1 4/1/4 5/4/5 
f 3/1/3 4/4/4 1/2/1 
f 2/3/2 1/1/1 5/2/5 
f 3/5/3 2/6/2 6/7/6 
f 6/7/6 7/8/7 3/5/3 
f 2/9/2 5/10/5 8/11/8 
f 8/11/8 6/12/6 2/9/2 
f 5/13/5 4/14/4 9/15/9 
f 9/15/9 8/16/8 5/13/5 
f 4/17/4 3/18/3 7/19/7 
f 7/19/7 9/20/9 4/17/4 
f 7/8/7 6/7/6 10/21/10 
f 10/21/10 11/22/11 7/8/7 
f 6/12/6 8/11/8 12/23/12 
f 12/23/12 10/24/10 6/12/6 
f 8/16/8 9/15/9 13/25/13 
f 13/25/13 12/26/12 8/16/8 
f 9/20/9 7/19/7 11/27/11 
f 11/27/11 13/28/13 9/20/9 
f 11/22/11 10/21/10 14/29/14 
f 14/29/14 15/30/15 11/22/11 
f 10/31/10 12/32/12 16/33/16 
f 16/33/16 14/34/14 10/31/10 
f 12/26/12 13/25/13 17/35/17 
f 17/35/17 16/36/16 12/26/12 
f 13/37/13 11/38/11 15/39/15 
f 15/39/15 17/40/17 13/37/13 
f 15/30/15 14/29/14 18/41/18 
f 18/41/18 19/42/19 15/30/15 
f 14/34/14 16/33/16 20/43/20 
f 20/43/20 18/44/18 14/34/14 
f 16/36/16 17/35/17 21/45/21 
f 21/45/21 20/46/20 16/36/16 
f 17/40/17 15/39/15 19/47/19 
f 19/47/19 21/48/21 17/40/17 
f 19/42/19 18/41/18 22/49/22 
f 22/49/22 23/50/23 19/42/19 
f 18/44/18 20/43/20 24/51/24 
f 24/51/24 22/52/22 18/44/18 
f 20/46/20 21/45/21 25/53/25 
f 25/53/25 24/54/24 20/46/20 
f 21/48/21 19/47/19 23/55/23 
f 23/55/23 25/56/25 21/48/21 
f 23/50/23 22/49/22 26/57/26 
f 26/57/26 27/58/27 23/50/23 
f 22/59/22 24/60/24 28/61/28 
f 28/61/28 26/62/26 22/59/22 
f 24/54/24 25/53/25 29/63/29 
f 29/63/29 28/64/28 24/54/24 
f 25/65/25 23/66/23 27/67/27 
f 27/67/27 29/68/29 25/65/25 
f 27/58/27 26/57/26 30/69/30 
f 30/69/30 31/70/31 27/58/27 
f 26/62/26 28/61/28 32/71/32 
f 32/71/32 30/72/30 26/62/26 
f 28/64/28 29/63/29 33/73/33 
f 33/73/33 32/74/32 28/64/28 
f 29/68/29 27/67/27 31/75/31 
f 31/75/31 33/76/33 29/68/29 
f 31/70/31 30/69/30 34/77/34 
f 34/77/34 35/78/35 31/70/31 
f 30/72/30 32/71/32 36/79/36 
f 36/79/36 34/80/34 30/72/30 
f 32/74/32 33/73/33 37/81/37 
f 37/81/37 36/82/36 32/74/32 
f 33/76/33 31/75/31 35/83/35 
f 35/83/35 37/84/37 33/76/33 
f 35/78/35 34/77/34 38/85/38 
f 38/85/38 39/86/39 35/78/35 
f 34/87/34 36/88/36 40/89/40 
f 40/89/40 38/90/38 34/87/34 
f 36/82/36 37/81/37 41/91/41 
f 41/91/41 40/92/40 36/82/36 
f 37/93/37 35/94/35 39/95/39 
f 39/95/39 41/96/41 37/93/37 
f 39/86/39 38/85/38 42/97/42 
f 42/97/42 43/98/43 39/86/39 
f 38/90/38 40/89/40 44/99/44 
f 44/99/44 42/100/42 38/90/38 
f 40/92/40 41/91/41 45/101/45 
f 45/101/45 44/102/44 40/92/40 
f 41/96/41 39/95/39 43/103/43 
f 43/103/43 45/104/45 41/96/41 
f 43/98/43 42/97/42 46/105/46 
f 46/105/46 47/106/47 43/98/43 
f 42/107/42 44/108/44 48/109/48 
f 48/109/48 46/110/46 42/107/42 
f 44/102/44 45/101/45 49/111/49 
f 49/111/49 48/112/48 44/102/44 
f 45/113/45 43/114/43 47/115/47 
f 47/115/47 49/116/49 45/113/45 
f 47/106/47 46/105/46 50/117/50 
f 50/117/50 51/118/51 47/106/47 
f 46/119/46 48/120/48 52/121/52 
f 52/121/52 50/122/50 46/119/46 
f 48/112/48 49/111/49 53/123/53 
f 53/123/53 52/124/52 48/112/48 
f 49/125/49 47/126/47 51/127/51 
f 51/127/51 53/128/53 49/125/49 
f 51/118/51 50/117/50 54/129/54 
f 54/129/54 55/130/55 51/118/51 
f 50/131/50 52/132/52 56/133/56 
f 56/133/56 54/134/54 50/131/50 
f 52/124/52 53/123/53 57/135/57 
f 57/135/57 56/136/56 52/124/52 
f 53/137/53 51/138/51 55/139/55 
f 55/139/55 57/140/57 53/137/53 
f 55/130/55 54/129/54 58/141/58 
f 58/141/58 59/142/59 55/130/55 
f 54/143/54 56/144/56 60/145/60 
f 60/145/60 58/146/58 54/143/54 
f 56/136/56 57/135/57 61/147/61 
f 61/147/61 60/148/60 56/136/56 
f 57/149/57 55/150/55 59/151/59 
f 59/151/59 61/152/61 57/149/57 
f 59/153/59 58/153/58 62/153/62 
f 58/154/58 60/155/60 62/156/62 
f 60/148/60 61/147/61 62/157/62 
f 61/158/61 59/159/59 62/160/62 
f 63/161/63 64/162/64 65/163/65 
f 65/163/65 66/164/66 63/161/63 
f 67/165/67 68/166/68 69/167/69 
f 69/167/69 70/168/70 67/165/67 
f 63/169/63 66/170/66 68/171/68 
f 68/171/68 67/172/67 63/169/63 
f 66/173/66 65/174/65 69/175/69 
f 69/175/69 68/176/68 66/173/66 
f 64/177/64 63/178/63 67/179/67 
f 67/179/67 70/180/70 64/177/64 
f 65/163/65 64/162/64 71/181/71 
f 71/181/71 72/182/72 65/163/65 
f 64/177/64 70/180/70 73/183/73 
f 73/183/73 71/184/71 64/177/64 
f 70/168/70 69/167/69 74/185/74 
f 74/185/74 73/186/73 70/168/70 
f 69/175/69 65/174/65 72/187/72 
f 72/187/72 74/188/74 69/175/69 
f 72/182/72 71/181/71 75/189/75 
f 75/189/75 76/190/76 72/182/72 
f 71/184/71 73/183/73 77/191/77 
f 77/191/77 75/192/75 71/184/71 
f 73/186/73 74/185/74 78/193/78 
f 78/193/78 77/194/77 73/186/73 
f 76/190/76 75/189/75 79/195/79 
f 79/195/79 80/196/80 76/190/76 
f 75/197/75 77/198/77 81/199/81 
f 81/199/81 79/200/79 75/197/75 
f 77/194/77 78/193/78 82/201/82 
f 82/201/82 81/202/81 77/194/77 
f 78/203/78 76/204/76 80/205/80 
f 80/205/80 82/206/82 78/203/78 
f 80/196/80 79/195/79 83/207/83 
f 83/207/83 84/208/84 80/196/80 
f 79/209/79 81/210/81 85/211/85 
f 85/211/85 83/212/83 79/209/79 
f 81/202/81 82/201/82 86/213/86 
f 86/213/86 85/214/85 81/202/81 
f 82/215/82 80/216/80 84/217/84 
f 84/217/84 86/218/86 82/215/82 
f 84/208/84 83/207/83 87/219/87 
f 87/219/87 88/220/88 84/208/84 
f 83/212/83 85/211/85 89/221/89 
f 89/221/89 87/222/87 83/212/83 
f 85/214/85 86/213/86 90/223/90 
f 90/223/90 89/224/89 85/214/85 
f 86/225/86 84/226/84 88/227/88 
f 88/227/88 90/228/90 86/225/86 
f 88/220/88 87/219/87 91/229/91 
f 87/222/87 89/221/89 91/230/91 
f 89/224/89 90/223/90 91/231/91 
f 90/228/90 88/227/88 91/232/91 
f 74/188/74 72/187/72 92/233/92 
f 92/233/92 93/234/93 74/188/74 
f 72/182/72 76/190/76 94/235/94 
f 94/235/94 92/236/92 72/182/72 
f 76/237/76 78/238/78 95/239/95 
f 95/239/95 94/240/94 76/237/76 
f 95/241/95 78/193/78 74/185/74 
f 74/185/74 93/242/93 95/241/95 
f 93/234/93 92/233/92 96/243/96 
f 92/236/92 94/235/94 97/244/97 
f 97/244/97 96/245/96 92/236/92 
f 94/246/94 95/247/95 97/248/97 
f 95/241/95 93/242/93 96/249/96 
f 96/249/96 97/250/97 95/241/95 
f 98/251/98 99/252/99 100/253/100 
f 100/254/100 101/255/101 102/256/102 
f 99/257/99 101/258/101 100/259/100 
f 98/260/98 100/261/100 102/262/102 
f 99/252/99 98/251/98 103/263/103 
f 103/263/103 104/264/104 99/252/99 
f 98/265/98 102/266/102 105/267/105 
f 105/267/105 103/268/103 98/265/98 
f 102/256/102 101/255/101 106/269/106 
f 106/269/106 105/270/105 102/256/102 
f 101/258/101 99/257/99 104/271/104 
f 104/271/104 106/272/106 101/258/101 
f 104/264/104 103/263/103 107/273/107 
f 107/273/107 108/274/108 104/264/104 
f 103/268/103 105/267/105 109/275/109 
f 109/275/109 107/276/107 103/268/103 
f 105/270/105 106/269/106 110/277/110 
f 110/277/110 109/278/109 105/270/105 
f 106/272/106 104/271/104 108/279/108 
f 108/279/108 110/280/110 106/272/106 
f 108/274/108 107/273/107 111/281/111 
f 111/281/111 112/282/112 108/274/108 
f 107/283/107 109/284/109 113/285/113 
f 113/285/113 111/286/111 107/283/107 
f 109/278/109 110/277/110 114/287/114 
f 114/287/114 113/288/113 109/278/109 
f 110/289/110 108/290/108 112/291/112 
f 112/291/112 114/292/114 110/289/110 
f 112/282/112 111/281/111 115/293/115 
f 111/286/111 113/285/113 115/294/115 
f 113/288/113 114/287/114 115/295/115 
f 114/292/114 112/291/112 115/296/115 
# 218 faces

