# 3ds Max Wavefront OBJ Exporter v0.99 - (c)2007 guruware
# File Created: 10.02.2022 00:56:02

#
# object Box001
#

v  -11.9586 -10.2558 64.0110
v  -11.9586 13.1940 64.0110
v  -11.9586 13.4212 16.3671
v  -11.9586 -10.4830 16.3671
v  13.2198 -11.7778 11.1140
v  -22.5384 1.4691 -3.1685
v  -22.5384 25.0646 4.7290
v  13.2198 16.0127 11.1140
v  -22.5384 -22.1264 4.7290
v  13.2198 -18.7422 68.2605
v  -22.5384 -28.8526 51.3141
v  -22.5384 -27.1711 14.6009
v  -22.5384 31.7908 51.3141
v  13.2198 21.7648 68.2605
v  -22.5384 30.1093 14.6009
v  13.2198 1.5113 74.4498
v  -22.5384 1.4691 85.0099
v  -22.5384 -21.6781 76.5859
v  -22.5384 24.6163 76.5859
v  -37.1299 -14.7892 62.9501
v  -37.1299 -19.8696 45.3385
v  -37.1299 1.4691 68.8670
v  -37.1299 17.7274 62.9501
v  -37.1299 22.7667 45.1994
v  -37.1299 18.0423 12.4786
v  -37.1299 1.4691 6.9315
v  -37.1299 -15.0995 12.3011
v  -37.1299 -11.5623 60.1566
v  -37.1299 -15.6016 46.0751
v  -37.1299 1.4691 64.8991
v  -37.1299 14.5005 60.1566
v  -37.1299 18.5396 45.9290
v  -37.1299 14.7529 19.7025
v  -37.1299 1.4691 15.2563
v  -37.1299 -11.7782 19.5948
v  -32.4695 -11.5623 60.1566
v  -32.4695 -15.6015 45.9290
v  -32.4695 1.4691 64.8991
v  -32.4695 14.5005 60.1566
v  -32.4695 18.5396 45.9290
v  -32.4695 14.7529 19.7025
v  -32.4695 1.4691 15.2563
v  -32.4695 -11.8147 19.7025
v  33.5396 1.7538 37.7878
v  -33.5954 -16.0999 65.1059
v  -33.5954 19.0381 65.1059
v  -33.5954 19.3784 15.2722
v  -33.5954 -16.4402 15.2722
# 48 vertices

vn -0.6549 0.4888 -0.5764
vn -0.6548 -0.4893 -0.5761
vn -0.6555 -0.4910 0.5738
vn -0.6556 0.4905 0.5741
vn 0.5858 -0.5006 -0.6374
vn -0.0935 0.0331 -0.9951
vn -0.1204 0.6324 -0.7652
vn 0.5484 0.5220 -0.6533
vn -0.1358 -0.6565 -0.7420
vn 0.5610 -0.6691 0.4874
vn -0.1655 -0.9810 0.1014
vn -0.1278 -0.9584 -0.2551
vn -0.1605 0.9839 0.0789
vn 0.5599 0.6746 0.4811
vn -0.1464 0.9628 -0.2271
vn 0.5887 -0.0062 0.8084
vn -0.2492 -0.0048 0.9684
vn -0.2430 -0.6798 0.6920
vn -0.2492 0.6819 0.6877
vn -0.8729 -0.3896 0.2938
vn -0.8578 -0.5127 0.0366
vn -0.9054 0.0000 0.4245
vn -0.8729 0.3899 0.2934
vn -0.8476 0.5305 0.0112
vn -0.8423 0.4085 -0.3518
vn -0.8471 0.0029 -0.5314
vn -0.8417 -0.3968 -0.3662
vn -0.8248 0.4135 -0.3856
vn -0.7579 0.6507 -0.0463
vn -0.7928 -0.0000 -0.6095
vn -0.8252 -0.4136 -0.3847
vn -0.7572 -0.6518 -0.0435
vn -0.8461 -0.4092 0.3416
vn -0.7859 -0.0004 0.6183
vn -0.8490 0.4019 0.3430
vn -0.0009 0.7315 -0.6819
vn -0.0020 0.9980 -0.0624
vn 0.0000 0.0000 -1.0000
vn 0.0000 -0.7322 -0.6810
vn 0.0000 -0.9978 -0.0666
vn 0.0000 -0.7677 0.6408
vn 0.0000 0.0000 1.0000
vn -0.0063 0.7709 0.6369
vn 0.9973 -0.0019 -0.0739
vn -0.2288 0.7256 -0.6490
vn -0.2298 -0.7258 -0.6484
vn -0.2334 -0.7298 0.6426
vn -0.2325 0.7295 0.6433
# 48 vertex normals

vt 0.1144 0.9518 0.0000
vt 0.0543 0.9518 0.0000
vt 0.0536 0.8179 0.0000
vt 0.1151 0.8179 0.0000
vt 0.4409 0.8313 0.0000
vt 0.3942 0.9247 0.0000
vt 0.3330 0.9092 0.0000
vt 0.3710 0.8211 0.0000
vt 0.4580 0.9269 0.0000
vt 0.5809 0.7836 0.0000
vt 0.5744 0.8883 0.0000
vt 0.4859 0.9211 0.0000
vt 0.4859 0.9212 0.0000
vt 0.2289 0.8443 0.0000
vt 0.2469 0.7410 0.0000
vt 0.3073 0.8968 0.0000
vt 0.3711 0.8208 0.0000
vt 0.6249 0.7515 0.0000
vt 0.6876 0.8240 0.0000
vt 0.6359 0.8606 0.0000
vt 0.6629 0.7125 0.0000
vt 0.7312 0.7781 0.0000
vt 0.5744 0.8884 0.0000
vt 0.2469 0.7409 0.0000
vt 0.1754 0.8030 0.0000
vt 0.9863 0.4322 0.0000
vt 0.9134 0.6138 0.0000
vt 0.8377 0.4910 0.0000
vt 0.8725 0.3849 0.0000
vt 0.7393 0.6771 0.0000
vt 0.7395 0.5284 0.0000
vt 0.5654 0.6134 0.0000
vt 0.6413 0.4907 0.0000
vt 0.4928 0.4317 0.0000
vt 0.6068 0.3836 0.0000
vt 0.5162 0.1643 0.0000
vt 0.6425 0.1759 0.0000
vt 0.5640 0.0850 0.0000
vt 0.7396 0.0231 0.0000
vt 0.7396 0.1436 0.0000
vt 0.9152 0.0852 0.0000
vt 0.8365 0.1752 0.0000
vt 0.9630 0.1647 0.0000
vt 0.4739 0.4179 0.0000
vt 0.4197 0.6044 0.0000
vt 0.3888 0.5773 0.0000
vt 0.4320 0.4256 0.0000
vt 0.2473 0.6675 0.0000
vt 0.2473 0.6296 0.0000
vt 0.0748 0.6044 0.0000
vt 0.1057 0.5773 0.0000
vt 0.0210 0.4165 0.0000
vt 0.0625 0.4241 0.0000
vt 0.0716 0.0750 0.0000
vt 0.1037 0.1469 0.0000
vt 0.2473 0.0107 0.0000
vt 0.2473 0.0935 0.0000
vt 0.4229 0.0732 0.0000
vt 0.3905 0.1458 0.0000
vt 0.3599 0.5503 0.0000
vt 0.3871 0.4212 0.0000
vt 0.2473 0.5874 0.0000
vt 0.1346 0.5503 0.0000
vt 0.1075 0.4213 0.0000
vt 0.1324 0.1707 0.0000
vt 0.2474 0.1361 0.0000
vt 0.3623 0.1704 0.0000
vt 0.7508 0.8013 0.0000
vt 0.9841 0.8327 0.0000
vt 0.8716 0.8952 0.0000
vt 0.9840 0.9601 0.0000
vt 0.7507 0.9877 0.0000
vt 0.7167 0.8944 0.0000
vt 0.1559 0.9837 0.0000
vt 0.0128 0.9837 0.0000
vt 0.0118 0.7862 0.0000
vt 0.1569 0.7862 0.0000
# 77 texture coords

o Box001
g Box001
s 1
f 1/1/1 2/2/2 3/3/3 
f 3/3/3 4/4/4 1/1/1 
f 5/5/5 6/6/6 7/7/7 
f 7/7/7 8/8/8 5/5/5 
f 6/6/6 5/5/5 9/9/9 
f 10/10/10 11/11/11 12/12/12 
f 12/12/12 5/5/5 10/10/10 
f 5/5/5 12/13/12 9/9/9 
f 13/14/13 14/15/14 8/8/8 
f 8/8/8 15/16/15 13/14/13 
f 15/16/15 8/17/8 7/7/7 
f 16/18/16 17/19/17 18/20/18 
f 18/20/18 10/10/10 16/18/16 
f 17/19/17 16/18/16 14/21/14 
f 14/21/14 19/22/19 17/19/17 
f 11/23/11 10/10/10 18/20/18 
f 14/24/14 13/14/13 19/25/19 
f 11/26/11 18/27/18 20/28/20 
f 20/28/20 21/29/21 11/26/11 
f 18/27/18 17/30/17 22/31/22 
f 22/31/22 20/28/20 18/27/18 
f 17/30/17 19/32/19 23/33/23 
f 23/33/23 22/31/22 17/30/17 
f 19/32/19 13/34/13 24/35/24 
f 24/35/24 23/33/23 19/32/19 
f 13/34/13 15/36/15 25/37/25 
f 25/37/25 24/35/24 13/34/13 
f 15/36/15 7/38/7 25/37/25 
f 7/38/7 6/39/6 26/40/26 
f 26/40/26 25/37/25 7/38/7 
f 6/39/6 9/41/9 27/42/27 
f 27/42/27 26/40/26 6/39/6 
f 9/41/9 12/43/12 27/42/27 
f 12/43/12 11/26/11 21/29/21 
f 21/29/21 27/42/27 12/43/12 
f 21/44/21 20/45/20 28/46/28 
f 28/46/28 29/47/29 21/44/21 
f 20/45/20 22/48/22 30/49/30 
f 30/49/30 28/46/28 20/45/20 
f 22/48/22 23/50/23 31/51/31 
f 31/51/31 30/49/30 22/48/22 
f 23/50/23 24/52/24 32/53/32 
f 32/53/32 31/51/31 23/50/23 
f 24/52/24 25/54/25 33/55/33 
f 33/55/33 32/53/32 24/52/24 
f 25/54/25 26/56/26 34/57/34 
f 34/57/34 33/55/33 25/54/25 
f 26/56/26 27/58/27 35/59/35 
f 35/59/35 34/57/34 26/56/26 
f 27/58/27 21/44/21 29/47/29 
f 29/47/29 35/59/35 27/58/27 
f 29/47/29 28/46/28 36/60/36 
f 36/60/36 37/61/37 29/47/29 
f 28/46/28 30/49/30 38/62/38 
f 38/62/38 36/60/36 28/46/28 
f 30/49/30 31/51/31 39/63/39 
f 39/63/39 38/62/38 30/49/30 
f 31/51/31 32/53/32 40/64/40 
f 40/64/40 39/63/39 31/51/31 
f 32/53/32 33/55/33 41/65/41 
f 41/65/41 40/64/40 32/53/32 
f 33/55/33 34/57/34 42/66/42 
f 42/66/42 41/65/41 33/55/33 
f 34/57/34 35/59/35 43/67/43 
f 43/67/43 42/66/42 34/57/34 
f 35/59/35 29/47/29 37/61/37 
f 37/61/37 43/67/43 35/59/35 
f 10/68/10 5/69/5 44/70/44 
f 5/69/5 8/71/8 44/70/44 
f 8/71/8 14/72/14 44/70/44 
f 14/72/14 16/73/16 44/70/44 
f 16/73/16 10/68/10 44/70/44 
f 2/2/2 1/1/1 45/74/45 
f 45/74/45 46/75/46 2/2/2 
f 3/3/3 2/2/2 46/75/46 
f 46/75/46 47/76/47 3/3/3 
f 4/4/4 3/3/3 47/76/47 
f 47/76/47 48/77/48 4/4/4 
f 1/1/1 4/4/4 48/77/48 
f 48/77/48 45/74/45 1/1/1 
# 80 faces

#
# object Box002
#

v  -14.2275 -9.7675 63.0187
v  -14.2275 12.7057 63.0187
v  -14.2275 12.9233 17.3594
v  -14.2275 -9.9851 17.3594
v  13.2198 -11.7778 11.1140
v  -22.5384 -22.1264 4.7290
v  -22.5384 25.0646 4.7290
v  13.2198 16.0127 11.1140
v  13.2198 -18.7422 68.2605
v  -22.5384 -21.6781 76.5859
v  -22.5384 24.6163 76.5859
v  13.2198 21.7648 68.2605
v  13.2198 1.5113 74.4498
v  -22.5384 1.4691 85.0099
v  -37.1299 -11.5623 60.1566
v  -37.1299 -15.6016 46.0751
v  -37.1299 1.4691 64.8991
v  -37.1299 14.5005 60.1566
v  -37.1299 18.5396 45.9290
v  -37.1299 14.7529 19.7025
v  -37.1299 1.4691 15.2563
v  -37.1299 -11.7782 19.5948
v  33.5396 1.7538 37.7878
v  -30.1920 -15.3681 64.0680
v  -30.1920 18.3063 64.0680
v  -30.1920 18.6324 16.3101
v  -30.1920 -15.6942 16.3101
# 27 vertices

vn -0.6745 0.4626 -0.5753
vn -0.6744 -0.4632 -0.5750
vn -0.6754 -0.4643 0.5729
vn -0.6755 0.4638 0.5732
vn 0.5368 -0.5260 -0.6597
vn -0.2151 -0.6811 -0.6999
vn -0.2172 0.6987 -0.6817
vn 0.5161 0.5686 -0.6406
vn 0.5282 -0.7052 0.4730
vn -0.2742 -0.7416 0.6123
vn -0.2726 0.7589 0.5914
vn 0.5116 0.7303 0.4527
vn 0.5887 -0.0062 0.8084
vn -0.2936 -0.0050 0.9559
vn -0.7777 -0.4973 0.3845
vn -0.4939 -0.8691 0.0271
vn -0.8094 0.0000 0.5873
vn -0.7774 0.4984 0.3836
vn -0.2324 0.9692 -0.0815
vn -0.7135 0.6265 -0.3138
vn -0.6866 0.0011 -0.7270
vn -0.7561 -0.5444 -0.3632
vn 0.9973 -0.0019 -0.0739
vn -0.2941 0.7209 -0.6276
vn -0.2951 -0.7211 -0.6268
vn -0.2999 -0.7244 0.6207
vn -0.2989 0.7242 0.6214
# 27 vertex normals

vt 0.1144 0.9518 0.0000
vt 0.0543 0.9518 0.0000
vt 0.0536 0.8179 0.0000
vt 0.1151 0.8179 0.0000
vt 0.4409 0.8313 0.0000
vt 0.3942 0.9247 0.0000
vt 0.3330 0.9092 0.0000
vt 0.3710 0.8211 0.0000
vt 0.5809 0.7836 0.0000
vt 0.5744 0.8883 0.0000
vt 0.4859 0.9211 0.0000
vt 0.2289 0.8443 0.0000
vt 0.2469 0.7410 0.0000
vt 0.3073 0.8968 0.0000
vt 0.6249 0.7515 0.0000
vt 0.6876 0.8240 0.0000
vt 0.6359 0.8606 0.0000
vt 0.6629 0.7125 0.0000
vt 0.7312 0.7781 0.0000
vt 0.9863 0.4322 0.0000
vt 0.8377 0.4910 0.0000
vt 0.8725 0.3849 0.0000
vt 0.7393 0.6771 0.0000
vt 0.7395 0.5284 0.0000
vt 0.5654 0.6134 0.0000
vt 0.6413 0.4907 0.0000
vt 0.6068 0.3836 0.0000
vt 0.5162 0.1643 0.0000
vt 0.6425 0.1759 0.0000
vt 0.7396 0.0231 0.0000
vt 0.7396 0.1436 0.0000
vt 0.8365 0.1752 0.0000
vt 0.7508 0.8013 0.0000
vt 0.9841 0.8327 0.0000
vt 0.8716 0.8952 0.0000
vt 0.9840 0.9601 0.0000
vt 0.7507 0.9877 0.0000
vt 0.7167 0.8944 0.0000
vt 0.1559 0.9837 0.0000
vt 0.0128 0.9837 0.0000
vt 0.0118 0.7862 0.0000
vt 0.1569 0.7862 0.0000
# 42 texture coords

o Box002
g Box002
s 1
f 49/78/49 50/79/50 51/80/51 
f 51/80/51 52/81/52 49/78/49 
f 53/82/53 54/83/54 55/84/55 
f 55/84/55 56/85/56 53/82/53 
f 57/86/57 58/87/58 54/88/54 
f 54/88/54 53/82/53 57/86/57 
f 59/89/59 60/90/60 56/85/56 
f 56/85/56 55/91/55 59/89/59 
f 61/92/61 62/93/62 58/94/58 
f 58/94/58 57/86/57 61/92/61 
f 62/93/62 61/92/61 60/95/60 
f 60/95/60 59/96/59 62/93/62 
f 58/97/58 63/98/63 64/99/64 
f 58/97/58 62/100/62 65/101/65 
f 65/101/65 63/98/63 58/97/58 
f 62/100/62 59/102/59 66/103/66 
f 66/103/66 65/101/65 62/100/62 
f 59/102/59 67/104/67 66/103/66 
f 59/102/59 55/105/55 68/106/68 
f 68/106/68 67/104/67 59/102/59 
f 55/105/55 54/107/54 69/108/69 
f 69/108/69 68/106/68 55/105/55 
f 54/107/54 70/109/70 69/108/69 
f 54/107/54 58/97/58 64/99/64 
f 64/99/64 70/109/70 54/107/54 
f 57/110/57 53/111/53 71/112/71 
f 53/111/53 56/113/56 71/112/71 
f 56/113/56 60/114/60 71/112/71 
f 60/114/60 61/115/61 71/112/71 
f 61/115/61 57/110/57 71/112/71 
f 50/79/50 49/78/49 72/116/72 
f 72/116/72 73/117/73 50/79/50 
f 51/80/51 50/79/50 73/117/73 
f 73/117/73 74/118/74 51/80/51 
f 52/81/52 51/80/51 74/118/74 
f 74/118/74 75/119/75 52/81/52 
f 49/78/49 52/81/52 75/119/75 
f 75/119/75 72/116/72 49/78/49 
# 38 faces

#
# object Box003
#

v  33.5396 1.7538 37.7878
v  -22.5384 -22.1264 4.7290
v  -22.5384 25.0646 4.7290
v  -22.5384 -21.6781 76.5859
v  -22.5384 24.6163 76.5859
v  -22.5384 1.4691 85.0099
v  -37.1299 1.4691 64.8991
v  -37.1299 -11.5623 60.1566
v  -37.1299 14.5005 60.1566
v  -37.1299 14.7529 19.7025
v  -37.1299 1.4691 15.2563
v  -37.1299 -11.7782 19.5948
# 12 vertices

vn 0.9986 0.0042 -0.0535
vn -0.0816 -0.6927 -0.7166
vn -0.0835 0.6917 -0.7174
vn -0.1004 -0.7675 0.6331
vn -0.1023 0.7668 0.6337
vn -0.1057 -0.0004 0.9944
vn -0.8094 0.0000 0.5873
vn -0.7375 -0.6168 0.2750
vn -0.7374 0.6169 0.2751
vn -0.7346 0.6108 -0.2952
vn -0.6866 0.0011 -0.7270
vn -0.7357 -0.6078 -0.2990
# 12 vertex normals

vt 0.4409 0.8313 0.0000
vt 0.3942 0.9247 0.0000
vt 0.3330 0.9092 0.0000
vt 0.5744 0.8883 0.0000
vt 0.4859 0.9211 0.0000
vt 0.2289 0.8443 0.0000
vt 0.3073 0.8968 0.0000
vt 0.6876 0.8240 0.0000
vt 0.6359 0.8606 0.0000
vt 0.7312 0.7781 0.0000
vt 0.9863 0.4322 0.0000
vt 0.7393 0.6771 0.0000
vt 0.7395 0.5284 0.0000
vt 0.8377 0.4910 0.0000
vt 0.5654 0.6134 0.0000
vt 0.6068 0.3836 0.0000
vt 0.5162 0.1643 0.0000
vt 0.6425 0.1759 0.0000
vt 0.7396 0.0231 0.0000
vt 0.7396 0.1436 0.0000
vt 0.8365 0.1752 0.0000
# 21 texture coords

o Box003
g Box003
s 1
f 76/120/76 77/121/77 78/122/78 
f 79/123/79 77/124/77 76/120/76 
f 80/125/80 76/120/76 78/126/78 
f 76/120/76 81/127/81 79/128/79 
f 81/127/81 76/120/76 80/129/80 
f 79/130/79 81/131/81 82/132/82 
f 82/132/82 83/133/83 79/130/79 
f 81/131/81 80/134/80 84/135/84 
f 84/135/84 82/132/82 81/131/81 
f 80/134/80 78/136/78 85/137/85 
f 85/137/85 84/135/84 80/134/80 
f 78/136/78 77/138/77 86/139/86 
f 86/139/86 85/137/85 78/136/78 
f 77/138/77 87/140/87 86/139/86 
f 77/138/77 79/130/79 83/133/83 
f 83/133/83 87/140/87 77/138/77 
# 16 faces

#
# object Box004
#

v  33.5396 1.7538 37.7878
v  -22.5384 -22.1264 4.7290
v  -22.5384 25.0646 4.7290
v  -22.5384 -21.6781 76.5859
v  -22.5384 24.6163 76.5859
v  -37.1299 14.5005 60.1566
v  -37.1299 -11.5623 60.1566
v  -37.1299 14.7529 19.7025
v  -37.1299 -11.7782 19.5948
# 9 vertices

vn 0.9995 0.0042 -0.0314
vn -0.1032 -0.6799 -0.7260
vn -0.1053 0.6788 -0.7267
vn -0.0955 -0.6651 0.7406
vn -0.0971 0.6641 0.7413
vn -0.7725 0.5184 0.3669
vn -0.7726 -0.5183 0.3668
vn -0.7632 0.5169 -0.3878
vn -0.7639 -0.5130 -0.3914
# 9 vertex normals

vt 0.4409 0.8313 0.0000
vt 0.3942 0.9247 0.0000
vt 0.3330 0.9092 0.0000
vt 0.5744 0.8883 0.0000
vt 0.4859 0.9211 0.0000
vt 0.2289 0.8443 0.0000
vt 0.3073 0.8968 0.0000
vt 0.6359 0.8606 0.0000
vt 0.7312 0.7781 0.0000
vt 0.9863 0.4322 0.0000
vt 0.5654 0.6134 0.0000
vt 0.6068 0.3836 0.0000
vt 0.7395 0.5284 0.0000
vt 0.5162 0.1643 0.0000
vt 0.6425 0.1759 0.0000
vt 0.7396 0.0231 0.0000
vt 0.8365 0.1752 0.0000
# 17 texture coords

o Box004
g Box004
s 1
f 88/141/88 89/142/89 90/143/90 
f 91/144/91 89/145/89 88/141/88 
f 92/146/92 88/141/88 90/147/90 
f 91/148/91 88/141/88 92/149/92 
f 91/150/91 92/151/92 93/152/93 
f 93/152/93 94/153/94 91/150/91 
f 92/151/92 90/154/90 95/155/95 
f 95/155/95 93/152/93 92/151/92 
f 90/154/90 89/156/89 96/157/96 
f 96/157/96 95/155/95 90/154/90 
f 89/156/89 91/150/91 94/153/94 
f 94/153/94 96/157/96 89/156/89 
# 12 faces

