# 3ds Max Wavefront OBJ Exporter v0.99 - (c)2007 guruware
# File Created: 02.02.2022 15:42:00

#
# object WallSign
#

v  -18.4242 -52.9697 -9.2121
v  -18.4242 52.9697 -9.2121
v  18.4242 52.9697 -9.2121
v  18.4242 -52.9697 -9.2121
v  -18.4242 -52.9697 9.2121
v  18.4242 -52.9697 9.2121
v  18.4242 52.9697 9.2121
v  -18.4242 52.9697 9.2121
v  -23.0303 -57.5758 -11.5152
v  23.0303 -57.5758 -11.5152
v  23.0303 -57.5758 11.5152
v  -23.0303 -57.5758 11.5152
v  23.0303 57.5758 -11.5152
v  23.0303 57.5758 11.5152
v  -23.0303 57.5758 -11.5152
v  -23.0303 57.5758 11.5152
v  -18.4242 52.9697 -11.5152
v  -18.4242 -52.9697 -11.5152
v  18.4242 52.9697 -11.5152
v  18.4242 -52.9697 -11.5152
v  18.4242 -52.9697 11.5152
v  -18.4242 -52.9697 11.5152
v  18.4242 52.9697 11.5152
v  -18.4242 52.9697 11.5152
# 24 vertices

vn 0.0000 0.0000 -1.0000
vn 0.0000 0.0000 1.0000
vn 0.0000 -1.0000 0.0000
vn 1.0000 0.0000 0.0000
vn 0.0000 1.0000 0.0000
vn -1.0000 0.0000 0.0000
# 6 vertex normals

vt 0.8397 0.0806 0.0000
vt 0.8397 0.8843 0.0000
vt 0.5600 0.8843 0.0000
vt 0.5600 0.0806 0.0000
vt 0.6151 0.9748 0.0000
vt 0.4971 0.9748 0.0000
vt 0.4971 0.9468 0.0000
vt 0.6151 0.9468 0.0000
vt 0.1263 0.9748 0.0000
vt 0.1263 0.9468 0.0000
vt 0.0082 0.9748 0.0000
vt 0.0082 0.9468 0.0000
vt 0.9859 0.9748 0.0000
vt 0.9859 0.9468 0.0000
vt 0.4061 0.0152 0.0000
vt 0.4061 0.9327 0.0000
vt 0.3694 0.8960 0.0000
vt 0.3694 0.0519 0.0000
vt 0.0391 0.9327 0.0000
vt 0.0758 0.8960 0.0000
vt 0.0391 0.0152 0.0000
vt 0.0758 0.0519 0.0000
vt 0.8674 0.0385 0.0000
vt 0.8674 0.9108 0.0000
vt 0.8486 0.9108 0.0000
vt 0.8486 0.0385 0.0000
vt 0.8486 0.9298 0.0000
vt 0.5451 0.9298 0.0000
vt 0.5451 0.9108 0.0000
vt 0.5262 0.9108 0.0000
vt 0.5262 0.0385 0.0000
vt 0.5451 0.0385 0.0000
vt 0.5451 0.0195 0.0000
vt 0.8486 0.0195 0.0000
# 34 texture coords

o WallSign
g WallSign
s off
f 1/1/1 2/2/1 3/3/1 
f 3/3/1 4/4/1 1/1/1 
f 5/4/2 6/1/2 7/2/2 
f 7/2/2 8/3/2 5/4/2 
f 9/5/3 10/6/3 11/7/3 
f 11/7/3 12/8/3 9/5/3 
f 10/6/4 13/9/4 14/10/4 
f 14/10/4 11/7/4 10/6/4 
f 13/9/5 15/11/5 16/12/5 
f 16/12/5 14/10/5 13/9/5 
f 15/13/6 9/5/6 12/8/6 
f 12/8/6 16/14/6 15/13/6 
f 9/15/1 15/16/1 17/17/1 
f 17/17/1 18/18/1 9/15/1 
f 15/16/1 13/19/1 19/20/1 
f 19/20/1 17/17/1 15/16/1 
f 13/19/1 10/21/1 20/22/1 
f 20/22/1 19/20/1 13/19/1 
f 10/21/1 9/15/1 18/18/1 
f 18/18/1 20/22/1 10/21/1 
f 12/21/2 11/15/2 21/18/2 
f 21/18/2 22/22/2 12/21/2 
f 11/15/2 14/16/2 23/17/2 
f 23/17/2 21/18/2 11/15/2 
f 14/16/2 16/19/2 24/20/2 
f 24/20/2 23/17/2 14/16/2 
f 16/19/2 12/21/2 22/22/2 
f 22/22/2 24/20/2 16/19/2 
f 18/23/4 17/24/4 2/25/4 
f 2/25/4 1/26/4 18/23/4 
f 17/27/3 19/28/3 3/29/3 
f 3/29/3 2/25/3 17/27/3 
f 19/30/6 20/31/6 4/32/6 
f 4/32/6 3/29/6 19/30/6 
f 20/33/5 18/34/5 1/26/5 
f 1/26/5 4/32/5 20/33/5 
f 22/33/5 21/34/5 6/26/5 
f 6/26/5 5/32/5 22/33/5 
f 21/23/6 23/24/6 7/25/6 
f 7/25/6 6/26/6 21/23/6 
f 23/27/3 24/28/3 8/29/3 
f 8/29/3 7/25/3 23/27/3 
f 24/30/4 22/31/4 5/32/4 
f 5/32/4 8/29/4 24/30/4 
# 44 faces

