# 3ds Max Wavefront OBJ Exporter v0.99 - (c)2007 guruware
# File Created: 12.11.2021 16:21:41

#
# object Box001
#

v  -3.1296 -1.7792 0.0000
v  -3.1296 3.2208 0.0000
v  -1.9106 3.2208 0.0000
v  -1.9106 -1.7792 0.0000
v  2.1533 -1.7792 0.0000
v  2.1533 3.2208 0.0000
v  3.3704 3.2208 0.0000
v  3.3704 -1.7792 0.0000
v  -3.1296 -1.7792 100.0000
v  -1.9106 -1.7792 100.0000
v  -1.9106 3.2208 100.0000
v  -3.1296 3.2208 100.0000
v  2.1533 -1.7792 100.0000
v  3.3704 -1.7792 100.0000
v  3.3704 3.2208 100.0000
v  2.1533 3.2208 100.0000
v  -1.9106 0.0277 0.0000
v  2.1533 0.0277 0.0000
v  2.1533 0.0277 100.0000
v  -1.9106 0.0277 100.0000
v  2.1533 1.3967 0.0000
v  -1.9106 1.3967 0.0000
v  -1.9106 1.3967 100.0000
v  2.1533 1.3967 100.0000
# 24 vertices

vn 0.0000 0.0000 -1.0000
vn 0.0000 0.0000 1.0000
vn 0.0000 -1.0000 0.0000
vn 1.0000 0.0000 0.0000
vn 0.0000 1.0000 0.0000
vn -1.0000 0.0000 0.0000
# 6 vertex normals

vt 0.8938 0.9851 0.0000
vt 0.8938 0.8286 0.0000
vt 0.9736 0.8286 0.0000
vt 0.9736 0.9851 0.0000
vt 0.8942 0.9851 0.0000
vt 0.8942 0.8286 0.0000
vt 0.9739 0.8286 0.0000
vt 0.9739 0.9851 0.0000
vt 0.8920 0.8286 0.0000
vt 0.9718 0.8286 0.0000
vt 0.9718 0.9851 0.0000
vt 0.8920 0.9851 0.0000
vt 0.9732 0.9851 0.0000
vt 0.8936 0.9851 0.0000
vt 0.8936 0.8286 0.0000
vt 0.9732 0.8286 0.0000
vt 0.1791 0.0039 0.0000
vt 0.2044 0.0039 0.0000
vt 0.2044 0.9961 0.0000
vt 0.1791 0.9961 0.0000
vt 0.3938 0.0005 0.0000
vt 0.4787 0.0005 0.0000
vt 0.4787 0.9995 0.0000
vt 0.3938 0.9995 0.0000
vt 0.6545 0.0039 0.0000
vt 0.6797 0.0039 0.0000
vt 0.6797 0.9961 0.0000
vt 0.6545 0.9961 0.0000
vt 0.7834 0.0039 0.0000
vt 0.7834 0.9961 0.0000
vt 0.8086 0.0039 0.0000
vt 0.8086 0.9961 0.0000
vt 0.3936 0.0005 0.0000
vt 0.4785 0.0005 0.0000
vt 0.4785 0.9995 0.0000
vt 0.3936 0.9995 0.0000
vt 0.0502 0.0039 0.0000
vt 0.0754 0.0039 0.0000
vt 0.0754 0.9961 0.0000
vt 0.0502 0.9961 0.0000
vt 0.6170 0.9961 0.0000
vt 0.6170 0.0039 0.0000
vt 0.2419 0.0039 0.0000
vt 0.2419 0.9961 0.0000
vt 0.0123 0.9961 0.0000
vt 0.0123 0.0039 0.0000
vt 0.8465 0.0039 0.0000
vt 0.8465 0.9961 0.0000
vt 0.9784 0.8286 0.0000
vt 0.9784 0.9558 0.0000
vt 0.8888 0.9558 0.0000
vt 0.8888 0.8286 0.0000
vt 0.9790 0.8280 0.0000
vt 0.9790 0.9553 0.0000
vt 0.8895 0.9553 0.0000
vt 0.8895 0.8280 0.0000
# 56 texture coords

o Box001
g Box001
s 2
f 1/1/1 2/2/1 3/3/1 
f 3/3/1 4/4/1 1/1/1 
f 5/5/1 6/6/1 7/7/1 
f 7/7/1 8/8/1 5/5/1 
s 4
f 9/9/2 10/10/2 11/11/2 
f 11/11/2 12/12/2 9/9/2 
f 13/13/2 14/14/2 15/15/2 
f 15/15/2 16/16/2 13/13/2 
s 8
f 1/17/3 4/18/3 10/19/3 
f 10/19/3 9/20/3 1/17/3 
f 17/21/3 18/22/3 19/23/3 
f 19/23/3 20/24/3 17/21/3 
f 5/25/3 8/26/3 14/27/3 
f 14/27/3 13/28/3 5/25/3 
s 16
f 8/26/4 7/29/4 15/30/4 
f 15/30/4 14/27/4 8/26/4 
s 32
f 7/29/5 6/31/5 16/32/5 
f 16/32/5 15/30/5 7/29/5 
f 21/33/5 22/34/5 23/35/5 
f 23/35/5 24/36/5 21/33/5 
f 3/37/5 2/38/5 12/39/5 
f 12/39/5 11/40/5 3/37/5 
s 64
f 2/38/6 1/17/6 9/20/6 
f 9/20/6 12/39/6 2/38/6 
s off
f 5/25/6 13/28/6 19/41/6 
f 19/41/6 18/42/6 5/25/6 
f 10/19/4 4/18/4 17/43/4 
f 17/43/4 20/44/4 10/19/4 
f 3/37/4 11/40/4 23/45/4 
f 23/45/4 22/46/4 3/37/4 
f 16/32/6 6/31/6 21/47/6 
f 21/47/6 24/48/6 16/32/6 
f 22/49/1 21/50/1 18/51/1 
f 18/51/1 17/52/1 22/49/1 
f 20/53/2 19/54/2 24/55/2 
f 24/55/2 23/56/2 20/53/2 
# 36 faces

#
# object Cylinder001
#

v  -6.3143 -1.7885 67.4882
v  -15.2440 -1.7885 76.4179
v  -15.2440 -1.7885 89.0465
v  -6.3143 -1.7885 97.9762
v  6.3143 -1.7885 97.9762
v  15.2440 -1.7885 89.0465
v  15.2440 -1.7885 76.4179
v  6.3143 -1.7885 67.4882
v  15.2440 -4.5385 89.0465
v  15.2440 -4.5385 76.4179
v  6.3143 -4.5385 97.9762
v  -6.3143 -4.5385 97.9762
v  -15.2440 -4.5385 89.0465
v  -15.2440 -4.5385 76.4179
v  -6.3143 -4.5385 67.4882
v  6.3143 -4.5385 67.4882
# 16 vertices

vn -0.0000 1.0000 -0.0000
vn 1.0000 0.0000 0.0000
vn 0.7071 0.0000 0.7071
vn -0.0000 0.0000 1.0000
vn -0.7071 0.0000 0.7071
vn -1.0000 -0.0000 -0.0000
vn -0.7071 -0.0000 -0.7071
vn 0.0000 -0.0000 -1.0000
vn 0.7071 -0.0000 -0.7071
vn 0.0000 -1.0000 0.0000
# 10 vertex normals

vt 0.8901 0.0076 0.0000
vt 0.9960 0.1117 0.0000
vt 0.9973 0.2601 0.0000
vt 0.8933 0.3660 0.0000
vt 0.7448 0.3673 0.0000
vt 0.6390 0.2632 0.0000
vt 0.6377 0.1148 0.0000
vt 0.7417 0.0089 0.0000
vt 0.8016 0.4340 0.0000
vt 0.8016 0.7671 0.0000
vt 0.7508 0.7461 0.0000
vt 0.7508 0.4550 0.0000
vt 0.5660 1.0027 0.0000
vt 0.5450 0.9519 0.0000
vt 0.2329 1.0027 0.0000
vt 0.2539 0.9519 0.0000
vt -0.0027 0.7671 0.0000
vt 0.0481 0.7461 0.0000
vt -0.0027 0.4340 0.0000
vt 0.0481 0.4550 0.0000
vt 0.2329 0.1984 0.0000
vt 0.2539 0.2492 0.0000
vt 0.5660 0.1984 0.0000
vt 0.5450 0.2492 0.0000
# 24 texture coords

o Cylinder001
g Cylinder001
s 1
f 25/57/7 26/58/7 27/59/7 
f 27/59/7 28/60/7 29/61/7 
f 29/61/7 30/62/7 31/63/7 
f 27/59/7 29/61/7 31/63/7 
f 25/57/7 27/59/7 31/63/7 
f 32/64/7 25/57/7 31/63/7 
s off
f 31/65/8 30/66/8 33/67/8 
f 33/67/8 34/68/8 31/65/8 
f 30/66/9 29/69/9 35/70/9 
f 35/70/9 33/67/9 30/66/9 
f 29/69/10 28/71/10 36/72/10 
f 36/72/10 35/70/10 29/69/10 
f 28/71/11 27/73/11 37/74/11 
f 37/74/11 36/72/11 28/71/11 
f 27/73/12 26/75/12 38/76/12 
f 38/76/12 37/74/12 27/73/12 
f 26/75/13 25/77/13 39/78/13 
f 39/78/13 38/76/13 26/75/13 
f 25/77/14 32/79/14 40/80/14 
f 40/80/14 39/78/14 25/77/14 
f 32/79/15 31/65/15 34/68/15 
f 34/68/15 40/80/15 32/79/15 
s 1
f 34/68/16 33/67/16 35/70/16 
f 35/70/16 36/72/16 37/74/16 
f 37/74/16 38/76/16 39/78/16 
f 35/70/16 37/74/16 39/78/16 
f 34/68/16 35/70/16 39/78/16 
f 40/80/16 34/68/16 39/78/16 
# 28 faces

