# 3ds Max Wavefront OBJ Exporter v0.99 - (c)2007 guruware
# File Created: 20.07.2021 15:08:23

mtllib tire.mtl

#
# object Cylinder001
#

v  6.1426 5.8871 -9.9267
v  -0.3221 5.8871 -5.2298
v  -8.3130 5.8871 -5.2298
v  -14.7777 5.8871 -9.9267
v  -17.2470 5.8871 -17.5264
v  -14.7777 5.8871 -25.1262
v  -8.3130 5.8871 -29.8230
v  -0.3221 5.8871 -29.8230
v  6.1426 5.8871 -25.1262
v  8.6119 5.8871 -17.5264
v  15.6824 4.4466 -17.5264
v  11.8628 4.4466 -29.2821
v  11.8628 10.0000 -29.2821
v  15.6824 10.0000 -17.5264
v  1.8628 4.4466 -36.5476
v  1.8628 10.0000 -36.5476
v  -10.4979 4.4466 -36.5476
v  -10.4979 10.0000 -36.5476
v  -20.4979 4.4466 -29.2821
v  -20.4979 10.0000 -29.2821
v  -24.3176 4.4466 -17.5264
v  -24.3176 10.0000 -17.5264
v  -20.4979 4.4466 -5.7707
v  -20.4979 10.0000 -5.7707
v  -10.4979 4.4466 1.4947
v  -10.4979 10.0000 1.4947
v  1.8628 4.4466 1.4947
v  1.8628 10.0000 1.4947
v  11.8628 4.4466 -5.7707
v  11.8628 10.0000 -5.7707
v  4.9432 10.7643 -10.7981
v  7.1294 10.7643 -17.5264
v  4.9432 10.7643 -24.2548
v  -0.7802 10.7643 -28.4132
v  -7.8549 10.7643 -28.4132
v  -13.5783 10.7643 -24.2548
v  -15.7645 10.7643 -17.5264
v  -13.5783 10.7643 -10.7981
v  -7.8549 10.7643 -6.6397
v  -0.7802 10.7643 -6.6397
v  8.6119 4.4466 -17.5264
v  6.1426 4.4466 -25.1262
v  6.1426 4.4466 -9.9267
v  -0.3221 4.4466 -5.2298
v  -8.3130 4.4466 -5.2298
v  -14.7777 4.4466 -9.9267
v  -17.2470 4.4466 -17.5264
v  -14.7777 4.4466 -25.1262
v  -8.3130 4.4466 -29.8230
v  -0.3221 4.4466 -29.8230
v  6.1426 10.0000 -25.1262
v  8.6119 10.0000 -17.5264
v  -0.3221 10.0000 -29.8230
v  -8.3130 10.0000 -29.8230
v  -14.7777 10.0000 -25.1262
v  -17.2470 10.0000 -17.5264
v  -14.7777 10.0000 -9.9267
v  -8.3130 10.0000 -5.2298
v  -0.3221 10.0000 -5.2298
v  6.1426 10.0000 -9.9267
# 60 vertices

vn -0.6191 -0.6438 -0.4498
vn -0.2365 -0.6437 -0.7278
vn 0.2365 -0.6437 -0.7278
vn 0.6191 -0.6437 -0.4498
vn 0.7653 -0.6437 -0.0000
vn 0.6191 -0.6437 0.4498
vn 0.2365 -0.6437 0.7278
vn -0.2365 -0.6437 0.7278
vn -0.6191 -0.6438 0.4498
vn -0.7652 -0.6438 0.0000
vn 0.6191 0.6437 -0.4498
vn 0.7653 0.6437 -0.0000
vn 0.2365 0.6437 -0.7278
vn -0.2365 0.6437 -0.7278
vn -0.6191 0.6438 -0.4498
vn -0.7652 0.6438 0.0000
vn -0.6191 -0.6437 0.4498
vn -0.6191 0.6437 0.4498
vn -0.2365 0.6437 0.7278
vn 0.2365 0.6437 0.7278
vn 0.6191 0.6437 0.4498
vn 0.2259 0.9602 0.1641
vn 0.2792 0.9602 -0.0000
vn 0.2259 0.9602 -0.1641
vn 0.0863 0.9602 -0.2656
vn -0.0863 0.9602 -0.2656
vn -0.2259 0.9602 -0.1641
vn -0.2792 0.9602 0.0000
vn -0.2259 0.9602 0.1641
vn -0.0863 0.9602 0.2656
vn 0.0863 0.9602 0.2656
vn -0.6210 -0.7838 0.0000
vn -0.5025 -0.7837 0.3651
vn -0.5025 -0.7837 -0.3651
vn -0.1919 -0.7837 -0.5907
vn 0.1919 -0.7837 -0.5907
vn 0.5025 -0.7837 -0.3651
vn 0.6211 -0.7837 -0.0000
vn 0.5025 -0.7837 0.3651
vn 0.1919 -0.7837 0.5907
vn -0.1919 -0.7837 0.5907
vn 0.1540 0.9817 -0.1119
vn 0.1904 0.9817 -0.0000
vn 0.0588 0.9817 -0.1811
vn -0.0588 0.9817 -0.1811
vn -0.1540 0.9817 -0.1119
vn -0.1904 0.9817 0.0000
vn -0.1540 0.9817 0.1119
vn -0.0588 0.9817 0.1811
vn 0.0588 0.9817 0.1811
vn 0.1540 0.9817 0.1119
# 51 vertex normals

vt 0.4021 0.3426 20.9767
vt 0.3072 0.4125 20.9767
vt 0.1896 0.4146 20.9767
vt 0.0957 0.3420 20.9767
vt 0.0553 0.2290 20.9767
vt 0.0940 0.1157 20.9767
vt 0.1871 0.0416 20.9767
vt 0.3045 0.0420 20.9767
vt 0.4006 0.1107 20.9767
vt 0.4334 0.2262 20.9767
vt 0.9374 0.1236 0.0000
vt 0.9374 0.0065 0.0000
vt 0.9928 0.0065 0.0000
vt 0.9928 0.1236 0.0000
vt 0.9368 0.9614 -0.0000
vt 0.9368 0.8516 -0.0000
vt 0.9895 0.8516 -0.0000
vt 0.9895 0.9614 -0.0000
vt 0.9368 0.7606 -0.0000
vt 0.9895 0.7606 0.0000
vt 0.9368 0.6696 -0.0000
vt 0.9895 0.6696 0.0000
vt 0.9368 0.5786 -0.0000
vt 0.9895 0.5786 0.0000
vt 0.9368 0.4876 -0.0000
vt 0.9895 0.4876 0.0000
vt 0.9368 0.3966 -0.0000
vt 0.9895 0.3966 0.0000
vt 0.9368 0.3056 -0.0000
vt 0.9895 0.3056 -0.0000
vt 0.9368 0.2146 -0.0000
vt 0.9895 0.2146 -0.0000
vt 0.4033 0.1178 -0.1910
vt 0.4399 0.2305 -0.1910
vt 0.4034 0.3432 -0.1910
vt 0.3072 0.4125 -0.1910
vt 0.1885 0.4127 -0.1910
vt 0.0926 0.3427 -0.1910
vt 0.0555 0.2301 -0.1910
vt 0.0923 0.1175 -0.1910
vt 0.1882 0.0479 -0.1910
vt 0.3069 0.0486 -0.1910
vt 0.9207 0.9569 0.0000
vt 0.8114 0.9569 0.0000
vt 0.8114 0.8944 0.0000
vt 0.9207 0.8944 0.0000
vt 0.7265 0.9564 -0.0000
vt 0.7265 0.8937 -0.0000
vt 0.6416 0.9564 -0.0000
vt 0.6416 0.8937 -0.0000
vt 0.5567 0.9564 -0.0000
vt 0.5567 0.8937 -0.0000
vt 0.4718 0.9564 -0.0000
vt 0.4718 0.8937 -0.0000
vt 0.3868 0.9564 -0.0000
vt 0.3868 0.8937 -0.0000
vt 0.3019 0.9564 -0.0000
vt 0.3019 0.8937 -0.0000
vt 0.2170 0.9564 -0.0000
vt 0.2170 0.8937 -0.0000
vt 0.1321 0.9564 -0.0000
vt 0.1321 0.8937 -0.0000
vt 0.0297 0.9564 -0.0000
vt 0.0500 0.8937 -0.0000
vt 0.8083 0.8958 0.0000
vt 0.9207 0.8958 0.0000
vt 0.8083 0.9569 0.0000
vt 0.0049 0.8927 -0.0000
vt 0.1103 0.8927 -0.0000
vt 0.1103 0.9571 -0.0000
vt 0.0294 0.9571 -0.0000
vt 0.1975 0.8927 0.0000
vt 0.1975 0.9571 0.0000
vt 0.2848 0.8927 0.0000
vt 0.2848 0.9571 0.0000
vt 0.3720 0.8927 0.0000
vt 0.3720 0.9571 0.0000
vt 0.4593 0.8927 0.0000
vt 0.4593 0.9571 0.0000
vt 0.5466 0.8927 0.0000
vt 0.5466 0.9571 0.0000
vt 0.6338 0.8927 -0.0000
vt 0.6338 0.9571 0.0000
vt 0.7211 0.8927 -0.0000
vt 0.7211 0.9571 -0.0000
vt 0.4130 0.3644 0.0000
vt 0.3160 0.4360 0.0000
vt 0.3072 0.4125 0.0000
vt 0.3930 0.3490 0.0000
vt 0.1609 0.4361 -0.0000
vt 0.0641 0.3640 0.0000
vt 0.0841 0.3487 0.0000
vt 0.1698 0.4125 0.0000
vt 0.0200 0.2516 0.0000
vt 0.0451 0.2492 0.0000
vt 0.0419 0.1330 0.0000
vt 0.0644 0.1441 0.0000
vt 0.1231 0.0437 0.0000
vt 0.1363 0.0651 0.0000
vt 0.2392 0.0108 0.0000
vt 0.2392 0.0359 0.0000
vt 0.3552 0.0441 0.0000
vt 0.3418 0.0654 0.0000
vt 0.4361 0.1336 0.0000
vt 0.4135 0.1447 0.0000
vt 0.4575 0.2523 0.0000
vt 0.4324 0.2498 0.0000
vt 0.9368 0.9614 0.0000
vt 0.9368 0.8361 0.0000
vt 0.9522 0.8361 -0.0000
vt 0.9522 0.9614 0.0000
vt 0.9375 0.7388 -0.0000
vt 0.9522 0.7388 -0.0000
vt 0.9375 0.6415 -0.0000
vt 0.9522 0.6415 -0.0000
vt 0.9375 0.5442 -0.0000
vt 0.9522 0.5442 -0.0000
vt 0.9375 0.4469 -0.0000
vt 0.9522 0.4469 -0.0000
vt 0.9375 0.3496 -0.0000
vt 0.9522 0.3496 -0.0000
vt 0.9375 0.2523 -0.0000
vt 0.9522 0.2523 -0.0000
vt 0.9375 0.1550 -0.0000
vt 0.9522 0.1550 -0.0000
vt 0.9375 0.0577 -0.0000
vt 0.9522 0.0577 -0.0000
vt 0.9375 -0.0364 -0.0000
vt 0.9522 -0.0274 -0.0000
# 129 texture coords

o Cylinder001
g Cylinder001
usemtl wire_028089177
s 1
f 1/1/1 2/2/2 3/3/3 4/4/4 5/5/5 6/6/6 7/7/7 8/8/8 9/9/9 10/10/10 
s off
f 11/11/5 12/12/4 13/13/11 14/14/12 
f 12/15/4 15/16/3 16/17/13 13/18/11 
f 15/16/3 17/19/2 18/20/14 16/17/13 
f 17/19/2 19/21/1 20/22/15 18/20/14 
f 19/21/1 21/23/10 22/24/16 20/22/15 
f 21/23/10 23/25/17 24/26/18 22/24/16 
f 23/25/17 25/27/8 26/28/19 24/26/18 
f 25/27/8 27/29/7 28/30/20 26/28/19 
f 27/29/7 29/31/6 30/32/21 28/30/20 
f 29/31/6 11/11/5 14/14/12 30/32/21 
s 1
f 31/33/22 32/34/23 33/35/24 34/36/25 35/37/26 36/38/27 37/39/28 38/40/29 39/41/30 40/42/31 
s off
f 12/43/4 11/44/5 41/45/32 42/46/33 
f 11/44/5 29/47/6 43/48/34 41/45/32 
f 29/47/6 27/49/7 44/50/35 43/48/34 
f 27/49/7 25/51/8 45/52/36 44/50/35 
f 25/51/8 23/53/17 46/54/37 45/52/36 
f 23/53/17 21/55/10 47/56/38 46/54/37 
f 21/55/10 19/57/1 48/58/39 47/56/38 
f 19/57/1 17/59/2 49/60/40 48/58/39 
f 17/59/2 15/61/3 50/62/41 49/60/40 
f 15/61/3 12/63/4 42/64/33 50/62/41 
f 14/65/12 13/66/11 51/43/42 52/67/43 
f 13/68/11 16/69/13 53/70/44 51/71/42 
f 16/69/13 18/72/14 54/73/45 53/70/44 
f 18/72/14 20/74/15 55/75/46 54/73/45 
f 20/74/15 22/76/16 56/77/47 55/75/46 
f 22/76/16 24/78/18 57/79/48 56/77/47 
f 24/78/18 26/80/19 58/81/49 57/79/48 
f 26/80/19 28/82/20 59/83/50 58/81/49 
f 28/82/20 30/84/21 60/85/51 59/83/50 
f 30/84/21 14/65/12 52/67/43 60/85/51 
f 52/86/43 51/87/42 33/88/24 32/89/23 
f 51/90/42 53/91/44 34/92/25 33/93/24 
f 53/91/44 54/94/45 35/95/26 34/92/25 
f 54/94/45 55/96/46 36/97/27 35/95/26 
f 55/96/46 56/98/47 37/99/28 36/97/27 
f 56/98/47 57/100/48 38/101/29 37/99/28 
f 57/100/48 58/102/49 39/103/30 38/101/29 
f 58/102/49 59/104/50 40/105/31 39/103/30 
f 59/104/50 60/106/51 31/107/22 40/105/31 
f 60/106/51 52/86/43 32/89/23 31/107/22 
f 42/108/33 41/109/32 10/110/10 9/111/9 
f 41/109/32 43/112/34 1/113/1 10/110/10 
f 43/112/34 44/114/35 2/115/2 1/113/1 
f 44/114/35 45/116/36 3/117/3 2/115/2 
f 45/116/36 46/118/37 4/119/4 3/117/3 
f 46/118/37 47/120/38 5/121/5 4/119/4 
f 47/120/38 48/122/39 6/123/6 5/121/5 
f 48/122/39 49/124/40 7/125/7 6/123/6 
f 49/124/40 50/126/41 8/127/8 7/125/7 
f 50/126/41 42/128/33 9/129/9 8/127/8 
# 52 polygons

