# 3ds Max Wavefront OBJ Exporter v0.99 - (c)2007 guruware
# File Created: 29.11.2021 15:16:58

#
# object Sign
#

v  -14.8541 -19.9110 0.0000
v  5.1459 -19.9110 0.0000
v  5.1459 -19.9110 3.3333
v  -14.8541 -19.9110 3.3333
v  -11.8541 -16.9110 3.3333
v  2.1459 -16.9110 3.3333
v  2.1459 -16.9110 6.6667
v  -11.8541 -16.9110 6.6667
v  -14.8541 -19.9110 6.6667
v  5.1459 -19.9110 6.6667
v  5.1459 -19.9110 10.0000
v  -14.8541 -19.9110 10.0000
v  5.1459 30.0890 0.0000
v  5.1459 30.0890 3.3333
v  2.1459 27.0890 3.3333
v  2.1459 27.0890 6.6667
v  5.1459 30.0890 6.6667
v  5.1459 30.0890 10.0000
v  -14.8541 30.0890 0.0000
v  -14.8541 30.0890 3.3333
v  -11.8541 27.0890 3.3333
v  -11.8541 27.0890 6.6667
v  -14.8541 30.0890 6.6667
v  -14.8541 30.0890 10.0000
v  -12.8541 28.0890 0.0000
v  -12.8541 -17.9110 0.0000
v  3.1459 28.0890 0.0000
v  3.1459 -17.9110 0.0000
v  3.1459 -17.9110 10.0000
v  -12.8541 -17.9110 10.0000
v  3.1459 28.0890 10.0000
v  -12.8541 28.0890 10.0000
v  -12.8541 28.0890 1.0000
v  -12.8541 -17.9110 1.0000
v  3.1459 28.0890 1.0000
v  3.1459 -17.9110 1.0000
v  3.1459 -17.9110 9.0000
v  -12.8541 -17.9110 9.0000
v  3.1459 28.0890 9.0000
v  -12.8541 28.0890 9.0000
# 40 vertices

vn 0.0000 -1.0000 0.0000
vn 1.0000 0.0000 0.0000
vn 0.0000 1.0000 0.0000
vn -1.0000 0.0000 0.0000
vn 0.0000 0.0000 1.0000
vn 0.0000 0.0000 -1.0000
# 6 vertex normals

vt 0.4985 0.0608 0.0000
vt 0.1504 0.0608 0.0000
vt 0.1504 0.0028 0.0000
vt 0.4985 0.0028 0.0000
vt 0.4579 0.3989 0.0000
vt 0.4579 0.4603 0.0000
vt 0.4433 0.4603 0.0000
vt 0.4433 0.3989 0.0000
vt 0.1504 0.0094 0.0000
vt 0.4985 0.0094 0.0000
vt 0.1504 0.9311 0.0000
vt 0.0924 0.9311 0.0000
vt 0.0924 0.0608 0.0000
vt 0.4579 0.6530 0.0000
vt 0.4433 0.6530 0.0000
vt 0.5565 0.0608 0.0000
vt 0.5565 0.9311 0.0000
vt 0.4985 0.9311 0.0000
vt 0.4985 0.9891 0.0000
vt 0.1504 0.9891 0.0000
vt 0.4579 0.7143 0.0000
vt 0.4433 0.7143 0.0000
vt 0.5479 0.0608 0.0000
vt 0.5479 0.9311 0.0000
vt 0.4579 0.2062 0.0000
vt 0.4433 0.2062 0.0000
vt 0.2145 0.2047 0.0000
vt 0.4183 0.2047 0.0000
vt 0.3877 0.2353 0.0000
vt 0.2450 0.2353 0.0000
vt 0.4183 0.7143 0.0000
vt 0.3877 0.6837 0.0000
vt 0.2145 0.7143 0.0000
vt 0.2450 0.6837 0.0000
vt 0.1927 0.2047 0.0000
vt 0.4433 0.2047 0.0000
vt 0.4057 0.2353 0.0000
vt 0.2303 0.2353 0.0000
vt 0.4057 0.6837 0.0000
vt 0.1927 0.7143 0.0000
vt 0.2303 0.6837 0.0000
vt 0.4637 0.8963 0.0000
vt 0.4637 0.0956 0.0000
vt 0.1852 0.8963 0.0000
vt 0.1852 0.0956 0.0000
vt 0.8895 0.0996 0.0000
vt 0.8895 0.9311 0.0000
vt 0.8715 0.9311 0.0000
vt 0.8715 0.0996 0.0000
vt 0.8715 0.9492 0.0000
vt 0.5822 0.9492 0.0000
vt 0.5822 0.9311 0.0000
vt 0.5642 0.9311 0.0000
vt 0.5642 0.0996 0.0000
vt 0.5822 0.0996 0.0000
vt 0.5822 0.0815 0.0000
vt 0.8715 0.0815 0.0000
# 57 texture coords

o Sign
g Sign
s off
f 1/1/1 2/2/1 3/3/1 
f 3/3/1 4/4/1 1/1/1 
f 5/5/1 6/6/1 7/7/1 
f 7/7/1 8/8/1 5/5/1 
f 9/9/1 10/10/1 11/1/1 
f 11/1/1 12/2/1 9/9/1 
f 2/2/2 13/11/2 14/12/2 
f 14/12/2 3/13/2 2/2/2 
f 6/6/2 15/14/2 16/15/2 
f 16/15/2 7/7/2 6/6/2 
f 10/16/2 17/17/2 18/18/2 
f 18/18/2 11/1/2 10/16/2 
f 13/11/3 19/18/3 20/19/3 
f 20/19/3 14/20/3 13/11/3 
f 15/14/3 21/21/3 22/22/3 
f 22/22/3 16/15/3 15/14/3 
f 17/19/3 23/20/3 24/11/3 
f 24/11/3 18/18/3 17/19/3 
f 19/18/4 1/1/4 4/23/4 
f 4/23/4 20/24/4 19/18/4 
f 21/25/4 5/5/4 8/8/4 
f 8/8/4 22/26/4 21/25/4 
f 23/12/4 9/13/4 12/2/4 
f 12/2/4 24/11/4 23/12/4 
f 4/27/5 3/28/5 6/29/5 
f 6/29/5 5/30/5 4/27/5 
f 3/28/5 14/31/5 15/32/5 
f 15/32/5 6/29/5 3/28/5 
f 14/31/5 20/33/5 21/34/5 
f 21/34/5 15/32/5 14/31/5 
f 20/33/5 4/27/5 5/30/5 
f 5/30/5 21/34/5 20/33/5 
f 10/35/6 9/36/6 8/37/6 
f 8/37/6 7/38/6 10/35/6 
f 9/36/6 23/22/6 22/39/6 
f 22/39/6 8/37/6 9/36/6 
f 23/22/6 17/40/6 16/41/6 
f 16/41/6 22/39/6 23/22/6 
f 17/40/6 10/35/6 7/38/6 
f 7/38/6 16/41/6 17/40/6 
f 1/1/6 19/18/6 25/42/6 
f 25/42/6 26/43/6 1/1/6 
f 19/18/6 13/11/6 27/44/6 
f 27/44/6 25/42/6 19/18/6 
f 13/11/6 2/2/6 28/45/6 
f 28/45/6 27/44/6 13/11/6 
f 2/2/6 1/1/6 26/43/6 
f 26/43/6 28/45/6 2/2/6 
f 12/2/5 11/1/5 29/43/5 
f 29/43/5 30/45/5 12/2/5 
f 11/1/5 18/18/5 31/42/5 
f 31/42/5 29/43/5 11/1/5 
f 18/18/5 24/11/5 32/44/5 
f 32/44/5 31/42/5 18/18/5 
f 24/11/5 12/2/5 30/45/5 
f 30/45/5 32/44/5 24/11/5 
f 26/46/2 25/47/2 33/48/2 
f 33/48/2 34/49/2 26/46/2 
f 25/50/1 27/51/1 35/52/1 
f 35/52/1 33/48/1 25/50/1 
f 27/53/4 28/54/4 36/55/4 
f 36/55/4 35/52/4 27/53/4 
f 28/56/3 26/57/3 34/49/3 
f 34/49/3 36/55/3 28/56/3 
f 30/56/3 29/57/3 37/49/3 
f 37/49/3 38/55/3 30/56/3 
f 29/46/4 31/47/4 39/48/4 
f 39/48/4 37/49/4 29/46/4 
f 31/50/1 32/51/1 40/52/1 
f 40/52/1 39/48/1 31/50/1 
f 32/53/2 30/54/2 38/55/2 
f 38/55/2 40/52/2 32/53/2 
# 72 faces

#
# object Pipe
#

v  2.1711 23.1765 3.7653
v  2.1711 25.1286 4.8923
v  22.1711 25.1286 4.8923
v  22.1711 23.1765 3.7653
v  2.1711 23.1765 6.0194
v  22.1711 23.1765 6.0194
# 6 vertices

vn 0.0000 -0.5000 -0.8660
vn -0.0000 1.0000 0.0000
vn 0.0000 1.0000 0.0000
vn -0.0000 -0.5000 0.8660
# 4 vertex normals

vt 0.9907 0.3385 0.0000
vt 0.9907 0.6635 0.0000
vt 0.0096 0.6635 0.0000
vt 0.0096 0.3385 0.0000
vt 0.9907 0.9886 0.0000
vt 0.0096 0.9886 0.0000
vt 0.9907 0.0135 0.0000
vt 0.0096 0.0135 0.0000
# 8 texture coords

o Pipe
g Pipe
s 8
f 41/58/7 42/59/8 43/60/9 
f 43/60/9 44/61/7 41/58/7 
f 42/59/8 45/62/10 46/63/10 
f 46/63/10 43/60/9 42/59/8 
f 45/64/10 41/58/7 44/61/7 
f 44/61/7 46/65/10 45/64/10 
# 6 faces

#
# object Pipe2
#

v  2.1711 -13.3181 3.7653
v  2.1711 -11.3660 4.8923
v  22.1711 -11.3660 4.8923
v  22.1711 -13.3181 3.7653
v  2.1711 -13.3181 6.0194
v  22.1711 -13.3181 6.0194
# 6 vertices

vn 0.0000 -0.5000 -0.8660
vn -0.0000 1.0000 0.0000
vn 0.0000 1.0000 0.0000
vn -0.0000 -0.5000 0.8660
# 4 vertex normals

vt 0.9907 0.3385 0.0000
vt 0.9907 0.6635 0.0000
vt 0.0096 0.6635 0.0000
vt 0.0096 0.3385 0.0000
vt 0.9907 0.9886 0.0000
vt 0.0096 0.9886 0.0000
vt 0.9907 0.0135 0.0000
vt 0.0096 0.0135 0.0000
# 8 texture coords

o Pipe2
g Pipe2
s 8
f 47/66/11 48/67/12 49/68/13 
f 49/68/13 50/69/11 47/66/11 
f 48/67/12 51/70/14 52/71/14 
f 52/71/14 49/68/13 48/67/12 
f 51/72/14 47/66/11 50/69/11 
f 50/69/11 52/73/14 51/72/14 
# 6 faces

#
# object Screen
#

v  -12.8541 -17.9110 1.0000
v  -12.8541 28.0890 1.0000
v  3.1459 28.0890 1.0000
v  3.1459 -17.9110 1.0000
v  -12.8541 -17.9110 9.0000
v  3.1459 -17.9110 9.0000
v  3.1459 28.0890 9.0000
v  -12.8541 28.0890 9.0000
# 8 vertices

vn 0.0000 0.0000 -1.0000
vn 0.0000 0.0000 1.0000
# 2 vertex normals

vt 0.8715 0.0996 0.0000
vt 0.8715 0.9311 0.0000
vt 0.5822 0.9311 0.0000
vt 0.5822 0.0996 0.0000
# 4 texture coords

o Screen
g Screen
s off
f 53/74/15 54/75/15 55/76/15 
f 55/76/15 56/77/15 53/74/15 
f 57/77/16 58/74/16 59/75/16 
f 59/75/16 60/76/16 57/77/16 
# 4 faces

#
# object SignLOD1
#

v  -14.8541 -19.9110 0.0000
v  5.1459 -19.9110 0.0000
v  5.1459 -19.9110 10.0000
v  -14.8541 -19.9110 10.0000
v  5.1459 30.0890 0.0000
v  5.1459 30.0890 10.0000
v  -14.8541 30.0890 0.0000
v  -14.8541 30.0890 10.0000
v  -12.8541 28.0890 0.0000
v  -12.8541 -17.9110 0.0000
v  3.1459 28.0890 0.0000
v  3.1459 -17.9110 0.0000
v  3.1459 -17.9110 10.0000
v  -12.8541 -17.9110 10.0000
v  3.1459 28.0890 10.0000
v  -12.8541 28.0890 10.0000
v  -12.8541 28.0890 1.0000
v  -12.8541 -17.9110 1.0000
v  3.1459 28.0890 1.0000
v  3.1459 -17.9110 1.0000
v  3.1459 -17.9110 9.0000
v  -12.8541 -17.9110 9.0000
v  3.1459 28.0890 9.0000
v  -12.8541 28.0890 9.0000
# 24 vertices

vn 0.0000 -1.0000 0.0000
vn 1.0000 0.0000 0.0000
vn 0.0000 1.0000 0.0000
vn -1.0000 0.0000 0.0000
vn 0.0000 0.0000 -1.0000
vn 0.0000 0.0000 1.0000
# 6 vertex normals

vt 0.4579 0.4035 0.0000
vt 0.4579 0.4983 0.0000
vt 0.4354 0.4983 0.0000
vt 0.4354 0.4035 0.0000
vt 0.4579 0.7963 0.0000
vt 0.4354 0.7963 0.0000
vt 0.4579 0.8912 0.0000
vt 0.4354 0.8912 0.0000
vt 0.4579 0.1055 0.0000
vt 0.4354 0.1055 0.0000
vt 0.4985 0.0608 0.0000
vt 0.4985 0.9311 0.0000
vt 0.4637 0.8963 0.0000
vt 0.4637 0.0956 0.0000
vt 0.1504 0.9311 0.0000
vt 0.1852 0.8963 0.0000
vt 0.1504 0.0608 0.0000
vt 0.1852 0.0956 0.0000
vt 0.8895 0.0996 0.0000
vt 0.8895 0.9311 0.0000
vt 0.8715 0.9311 0.0000
vt 0.8715 0.0996 0.0000
vt 0.8715 0.9492 0.0000
vt 0.5822 0.9492 0.0000
vt 0.5822 0.9311 0.0000
vt 0.5642 0.9311 0.0000
vt 0.5642 0.0996 0.0000
vt 0.5822 0.0996 0.0000
vt 0.5822 0.0815 0.0000
vt 0.8715 0.0815 0.0000
# 30 texture coords

o SignLOD1
g SignLOD1
s off
f 61/78/17 62/79/17 63/80/17 
f 63/80/17 64/81/17 61/78/17 
f 62/79/18 65/82/18 66/83/18 
f 66/83/18 63/80/18 62/79/18 
f 65/82/19 67/84/19 68/85/19 
f 68/85/19 66/83/19 65/82/19 
f 67/86/20 61/78/20 64/81/20 
f 64/81/20 68/87/20 67/86/20 
f 61/88/21 67/89/21 69/90/21 
f 69/90/21 70/91/21 61/88/21 
f 67/89/21 65/92/21 71/93/21 
f 71/93/21 69/90/21 67/89/21 
f 65/92/21 62/94/21 72/95/21 
f 72/95/21 71/93/21 65/92/21 
f 62/94/21 61/88/21 70/91/21 
f 70/91/21 72/95/21 62/94/21 
f 64/94/22 63/88/22 73/91/22 
f 73/91/22 74/95/22 64/94/22 
f 63/88/22 66/89/22 75/90/22 
f 75/90/22 73/91/22 63/88/22 
f 66/89/22 68/92/22 76/93/22 
f 76/93/22 75/90/22 66/89/22 
f 68/92/22 64/94/22 74/95/22 
f 74/95/22 76/93/22 68/92/22 
f 70/96/18 69/97/18 77/98/18 
f 77/98/18 78/99/18 70/96/18 
f 69/100/17 71/101/17 79/102/17 
f 79/102/17 77/98/17 69/100/17 
f 71/103/20 72/104/20 80/105/20 
f 80/105/20 79/102/20 71/103/20 
f 72/106/19 70/107/19 78/99/19 
f 78/99/19 80/105/19 72/106/19 
f 74/106/19 73/107/19 81/99/19 
f 81/99/19 82/105/19 74/106/19 
f 73/96/20 75/97/20 83/98/20 
f 83/98/20 81/99/20 73/96/20 
f 75/100/17 76/101/17 84/102/17 
f 84/102/17 83/98/17 75/100/17 
f 76/103/18 74/104/18 82/105/18 
f 82/105/18 84/102/18 76/103/18 
# 40 faces

#
# object PipeLOD1
#

v  2.1711 -13.3181 3.7653
v  2.1711 -11.3660 4.8923
v  22.1711 -11.3660 4.8923
v  22.1711 -13.3181 3.7653
v  2.1711 -13.3181 6.0194
v  22.1711 -13.3181 6.0194
# 6 vertices

vn 0.0000 -0.5000 -0.8660
vn -0.0000 1.0000 0.0000
vn 0.0000 1.0000 0.0000
vn -0.0000 -0.5000 0.8660
# 4 vertex normals

vt 0.9907 0.3385 0.0000
vt 0.9907 0.6635 0.0000
vt 0.0096 0.6635 0.0000
vt 0.0096 0.3385 0.0000
vt 0.9907 0.9886 0.0000
vt 0.0096 0.9886 0.0000
vt 0.9907 0.0135 0.0000
vt 0.0096 0.0135 0.0000
# 8 texture coords

o PipeLOD1
g PipeLOD1
s 8
f 85/108/23 86/109/24 87/110/25 
f 87/110/25 88/111/23 85/108/23 
f 86/109/24 89/112/26 90/113/26 
f 90/113/26 87/110/25 86/109/24 
f 89/114/26 85/108/23 88/111/23 
f 88/111/23 90/115/26 89/114/26 
# 6 faces

#
# object Pipe2LOD1
#

v  2.1711 23.1765 3.7653
v  2.1711 25.1286 4.8923
v  22.1711 25.1286 4.8923
v  22.1711 23.1765 3.7653
v  2.1711 23.1765 6.0194
v  22.1711 23.1765 6.0194
# 6 vertices

vn 0.0000 -0.5000 -0.8660
vn -0.0000 1.0000 0.0000
vn 0.0000 1.0000 0.0000
vn -0.0000 -0.5000 0.8660
# 4 vertex normals

vt 0.9907 0.3385 0.0000
vt 0.9907 0.6635 0.0000
vt 0.0096 0.6635 0.0000
vt 0.0096 0.3385 0.0000
vt 0.9907 0.9886 0.0000
vt 0.0096 0.9886 0.0000
vt 0.9907 0.0135 0.0000
vt 0.0096 0.0135 0.0000
# 8 texture coords

o Pipe2LOD1
g Pipe2LOD1
s 8
f 91/116/27 92/117/28 93/118/29 
f 93/118/29 94/119/27 91/116/27 
f 92/117/28 95/120/30 96/121/30 
f 96/121/30 93/118/29 92/117/28 
f 95/122/30 91/116/27 94/119/27 
f 94/119/27 96/123/30 95/122/30 
# 6 faces

#
# object ScreenLOD1
#

v  -12.8541 -17.9110 1.0000
v  -12.8541 28.0890 1.0000
v  3.1459 28.0890 1.0000
v  3.1459 -17.9110 1.0000
v  -12.8541 -17.9110 9.0000
v  3.1459 -17.9110 9.0000
v  3.1459 28.0890 9.0000
v  -12.8541 28.0890 9.0000
# 8 vertices

vn 0.0000 0.0000 -1.0000
vn 0.0000 0.0000 1.0000
# 2 vertex normals

vt 0.8715 0.0996 0.0000
vt 0.8715 0.9311 0.0000
vt 0.5822 0.9311 0.0000
vt 0.5822 0.0996 0.0000
# 4 texture coords

o ScreenLOD1
g ScreenLOD1
s off
f 97/124/31 98/125/31 99/126/31 
f 99/126/31 100/127/31 97/124/31 
f 101/127/32 102/124/32 103/125/32 
f 103/125/32 104/126/32 101/127/32 
# 4 faces

#
# object SignLOD2
#

v  -14.8541 -19.9110 0.0000
v  -14.8541 30.0890 0.0000
v  5.1459 30.0890 0.0000
v  5.1459 -19.9110 0.0000
v  -14.8541 -19.9110 10.0000
v  5.1459 -19.9110 10.0000
v  5.1459 30.0890 10.0000
v  -14.8541 30.0890 10.0000
# 8 vertices

vn 0.0000 0.0000 -1.0000
vn 0.0000 0.0000 1.0000
vn 0.0000 -1.0000 0.0000
vn 1.0000 0.0000 0.0000
vn 0.0000 1.0000 0.0000
vn -1.0000 0.0000 0.0000
# 6 vertex normals

vt 0.8894 0.0810 0.0000
vt 0.8894 0.9490 0.0000
vt 0.5643 0.9490 0.0000
vt 0.5643 0.0810 0.0000
vt 0.4579 0.4035 0.0000
vt 0.4579 0.4983 0.0000
vt 0.4354 0.4983 0.0000
vt 0.4354 0.4035 0.0000
vt 0.4579 0.7963 0.0000
vt 0.4354 0.7963 0.0000
vt 0.4579 0.8912 0.0000
vt 0.4354 0.8912 0.0000
vt 0.4579 0.1055 0.0000
vt 0.4354 0.1055 0.0000
# 14 texture coords

o SignLOD2
g SignLOD2
s off
f 105/128/33 106/129/33 107/130/33 
f 107/130/33 108/131/33 105/128/33 
f 109/129/34 110/130/34 111/131/34 
f 111/131/34 112/128/34 109/129/34 
f 105/132/35 108/133/35 110/134/35 
f 110/134/35 109/135/35 105/132/35 
f 108/133/36 107/136/36 111/137/36 
f 111/137/36 110/134/36 108/133/36 
f 107/136/37 106/138/37 112/139/37 
f 112/139/37 111/137/37 107/136/37 
f 106/140/38 105/132/38 109/135/38 
f 109/135/38 112/141/38 106/140/38 
# 12 faces

#
# object Pipe2LOD2
#

v  2.1711 23.1765 4.8923
v  2.1711 25.1286 4.8923
v  22.1711 25.1286 4.8923
v  22.1711 23.1765 4.8923
# 4 vertices

vn -0.6777 -0.4585 0.5749
vn -0.6777 0.4585 0.5749
vn 0.8283 0.5603 0.0000
vn 0.6777 -0.4585 -0.5749
# 4 vertex normals

vt 0.9907 0.1760 0.0000
vt 0.9907 0.6635 0.0000
vt 0.0096 0.6635 0.0000
vt 0.0096 0.1760 0.0000
vt 0.9907 0.9886 0.0000
vt 0.0096 0.9886 0.0000
# 6 texture coords

o Pipe2LOD2
g Pipe2LOD2
s 8
f 113/142/39 114/143/40 115/144/41 
f 115/144/41 116/145/42 113/142/39 
f 114/143/40 113/146/39 116/147/42 
f 116/147/42 115/144/41 114/143/40 
# 4 faces

#
# object PipeLOD2
#

v  22.1711 -11.3660 4.8923
v  22.1711 -13.3181 4.8923
v  2.1711 -13.3181 4.8923
v  2.1711 -11.3660 4.8923
# 4 vertices

vn 0.8283 0.5603 0.0000
vn 0.6777 -0.4585 -0.5749
vn -0.6777 -0.4585 0.5749
vn -0.6777 0.4585 0.5749
# 4 vertex normals

vt 0.0096 0.6635 0.0000
vt 0.0096 0.1760 0.0000
vt 0.9907 0.1760 0.0000
vt 0.9907 0.6635 0.0000
vt 0.0096 0.9886 0.0000
vt 0.9907 0.9886 0.0000
# 6 texture coords

o PipeLOD2
g PipeLOD2
s 8
f 117/148/43 118/149/44 119/150/45 
f 119/150/45 120/151/46 117/148/43 
f 118/152/44 117/148/43 120/151/46 
f 120/151/46 119/153/45 118/152/44 
# 4 faces

